%TF.GenerationSoftware,KiCad,Pcbnew,5.1.6*%
%TF.CreationDate,2020-05-18T18:09:20+02:00*%
%TF.ProjectId,solder-snorter,736f6c64-6572-42d7-936e-6f727465722e,rev?*%
%TF.SameCoordinates,Original*%
%TF.FileFunction,Legend,Top*%
%TF.FilePolarity,Positive*%
%FSLAX46Y46*%
G04 Gerber Fmt 4.6, Leading zero omitted, Abs format (unit mm)*
G04 Created by KiCad (PCBNEW 5.1.6) date 2020-05-18 18:09:20*
%MOMM*%
%LPD*%
G01*
G04 APERTURE LIST*
%ADD10C,0.300000*%
%ADD11C,0.150000*%
%ADD12C,0.120000*%
G04 APERTURE END LIST*
D10*
X143392857Y-146857142D02*
X143607142Y-146928571D01*
X143964285Y-146928571D01*
X144107142Y-146857142D01*
X144178571Y-146785714D01*
X144250000Y-146642857D01*
X144250000Y-146500000D01*
X144178571Y-146357142D01*
X144107142Y-146285714D01*
X143964285Y-146214285D01*
X143678571Y-146142857D01*
X143535714Y-146071428D01*
X143464285Y-146000000D01*
X143392857Y-145857142D01*
X143392857Y-145714285D01*
X143464285Y-145571428D01*
X143535714Y-145500000D01*
X143678571Y-145428571D01*
X144035714Y-145428571D01*
X144250000Y-145500000D01*
X145107142Y-146928571D02*
X144964285Y-146857142D01*
X144892857Y-146785714D01*
X144821428Y-146642857D01*
X144821428Y-146214285D01*
X144892857Y-146071428D01*
X144964285Y-146000000D01*
X145107142Y-145928571D01*
X145321428Y-145928571D01*
X145464285Y-146000000D01*
X145535714Y-146071428D01*
X145607142Y-146214285D01*
X145607142Y-146642857D01*
X145535714Y-146785714D01*
X145464285Y-146857142D01*
X145321428Y-146928571D01*
X145107142Y-146928571D01*
X146464285Y-146928571D02*
X146321428Y-146857142D01*
X146250000Y-146714285D01*
X146250000Y-145428571D01*
X147678571Y-146928571D02*
X147678571Y-145428571D01*
X147678571Y-146857142D02*
X147535714Y-146928571D01*
X147250000Y-146928571D01*
X147107142Y-146857142D01*
X147035714Y-146785714D01*
X146964285Y-146642857D01*
X146964285Y-146214285D01*
X147035714Y-146071428D01*
X147107142Y-146000000D01*
X147250000Y-145928571D01*
X147535714Y-145928571D01*
X147678571Y-146000000D01*
X148964285Y-146857142D02*
X148821428Y-146928571D01*
X148535714Y-146928571D01*
X148392857Y-146857142D01*
X148321428Y-146714285D01*
X148321428Y-146142857D01*
X148392857Y-146000000D01*
X148535714Y-145928571D01*
X148821428Y-145928571D01*
X148964285Y-146000000D01*
X149035714Y-146142857D01*
X149035714Y-146285714D01*
X148321428Y-146428571D01*
X149678571Y-146928571D02*
X149678571Y-145928571D01*
X149678571Y-146214285D02*
X149750000Y-146071428D01*
X149821428Y-146000000D01*
X149964285Y-145928571D01*
X150107142Y-145928571D01*
X151678571Y-146857142D02*
X151892857Y-146928571D01*
X152250000Y-146928571D01*
X152392857Y-146857142D01*
X152464285Y-146785714D01*
X152535714Y-146642857D01*
X152535714Y-146500000D01*
X152464285Y-146357142D01*
X152392857Y-146285714D01*
X152250000Y-146214285D01*
X151964285Y-146142857D01*
X151821428Y-146071428D01*
X151750000Y-146000000D01*
X151678571Y-145857142D01*
X151678571Y-145714285D01*
X151750000Y-145571428D01*
X151821428Y-145500000D01*
X151964285Y-145428571D01*
X152321428Y-145428571D01*
X152535714Y-145500000D01*
X153178571Y-145928571D02*
X153178571Y-146928571D01*
X153178571Y-146071428D02*
X153250000Y-146000000D01*
X153392857Y-145928571D01*
X153607142Y-145928571D01*
X153750000Y-146000000D01*
X153821428Y-146142857D01*
X153821428Y-146928571D01*
X154750000Y-146928571D02*
X154607142Y-146857142D01*
X154535714Y-146785714D01*
X154464285Y-146642857D01*
X154464285Y-146214285D01*
X154535714Y-146071428D01*
X154607142Y-146000000D01*
X154750000Y-145928571D01*
X154964285Y-145928571D01*
X155107142Y-146000000D01*
X155178571Y-146071428D01*
X155250000Y-146214285D01*
X155250000Y-146642857D01*
X155178571Y-146785714D01*
X155107142Y-146857142D01*
X154964285Y-146928571D01*
X154750000Y-146928571D01*
X155892857Y-146928571D02*
X155892857Y-145928571D01*
X155892857Y-146214285D02*
X155964285Y-146071428D01*
X156035714Y-146000000D01*
X156178571Y-145928571D01*
X156321428Y-145928571D01*
X156607142Y-145928571D02*
X157178571Y-145928571D01*
X156821428Y-145428571D02*
X156821428Y-146714285D01*
X156892857Y-146857142D01*
X157035714Y-146928571D01*
X157178571Y-146928571D01*
X158250000Y-146857142D02*
X158107142Y-146928571D01*
X157821428Y-146928571D01*
X157678571Y-146857142D01*
X157607142Y-146714285D01*
X157607142Y-146142857D01*
X157678571Y-146000000D01*
X157821428Y-145928571D01*
X158107142Y-145928571D01*
X158250000Y-146000000D01*
X158321428Y-146142857D01*
X158321428Y-146285714D01*
X157607142Y-146428571D01*
X158964285Y-146928571D02*
X158964285Y-145928571D01*
X158964285Y-146214285D02*
X159035714Y-146071428D01*
X159107142Y-146000000D01*
X159250000Y-145928571D01*
X159392857Y-145928571D01*
X160892857Y-145928571D02*
X161250000Y-146928571D01*
X161607142Y-145928571D01*
X162964285Y-146928571D02*
X162107142Y-146928571D01*
X162535714Y-146928571D02*
X162535714Y-145428571D01*
X162392857Y-145642857D01*
X162250000Y-145785714D01*
X162107142Y-145857142D01*
X163607142Y-146785714D02*
X163678571Y-146857142D01*
X163607142Y-146928571D01*
X163535714Y-146857142D01*
X163607142Y-146785714D01*
X163607142Y-146928571D01*
X164607142Y-145428571D02*
X164750000Y-145428571D01*
X164892857Y-145500000D01*
X164964285Y-145571428D01*
X165035714Y-145714285D01*
X165107142Y-146000000D01*
X165107142Y-146357142D01*
X165035714Y-146642857D01*
X164964285Y-146785714D01*
X164892857Y-146857142D01*
X164750000Y-146928571D01*
X164607142Y-146928571D01*
X164464285Y-146857142D01*
X164392857Y-146785714D01*
X164321428Y-146642857D01*
X164250000Y-146357142D01*
X164250000Y-146000000D01*
X164321428Y-145714285D01*
X164392857Y-145571428D01*
X164464285Y-145500000D01*
X164607142Y-145428571D01*
X157305000Y-138428571D02*
X157590714Y-138428571D01*
X157733571Y-138500000D01*
X157876428Y-138642857D01*
X157947857Y-138928571D01*
X157947857Y-139428571D01*
X157876428Y-139714285D01*
X157733571Y-139857142D01*
X157590714Y-139928571D01*
X157305000Y-139928571D01*
X157162142Y-139857142D01*
X157019285Y-139714285D01*
X156947857Y-139428571D01*
X156947857Y-138928571D01*
X157019285Y-138642857D01*
X157162142Y-138500000D01*
X157305000Y-138428571D01*
X159090714Y-139142857D02*
X158590714Y-139142857D01*
X158590714Y-139928571D02*
X158590714Y-138428571D01*
X159305000Y-138428571D01*
X160376428Y-139142857D02*
X159876428Y-139142857D01*
X159876428Y-139928571D02*
X159876428Y-138428571D01*
X160590714Y-138428571D01*
X158055000Y-132178571D02*
X158340714Y-132178571D01*
X158483571Y-132250000D01*
X158626428Y-132392857D01*
X158697857Y-132678571D01*
X158697857Y-133178571D01*
X158626428Y-133464285D01*
X158483571Y-133607142D01*
X158340714Y-133678571D01*
X158055000Y-133678571D01*
X157912142Y-133607142D01*
X157769285Y-133464285D01*
X157697857Y-133178571D01*
X157697857Y-132678571D01*
X157769285Y-132392857D01*
X157912142Y-132250000D01*
X158055000Y-132178571D01*
X159340714Y-133678571D02*
X159340714Y-132178571D01*
X160197857Y-133678571D01*
X160197857Y-132178571D01*
D11*
X162154761Y-126857142D02*
X162202380Y-126714285D01*
X162202380Y-126476190D01*
X162154761Y-126380952D01*
X162107142Y-126333333D01*
X162011904Y-126285714D01*
X161916666Y-126285714D01*
X161821428Y-126333333D01*
X161773809Y-126380952D01*
X161726190Y-126476190D01*
X161678571Y-126666666D01*
X161630952Y-126761904D01*
X161583333Y-126809523D01*
X161488095Y-126857142D01*
X161392857Y-126857142D01*
X161297619Y-126809523D01*
X161250000Y-126761904D01*
X161202380Y-126666666D01*
X161202380Y-126428571D01*
X161250000Y-126285714D01*
X161202380Y-125952380D02*
X162202380Y-125714285D01*
X161488095Y-125523809D01*
X162202380Y-125333333D01*
X161202380Y-125095238D01*
X162702380Y-123833333D02*
X163702380Y-123500000D01*
X162702380Y-123166666D01*
X163178571Y-122500000D02*
X163226190Y-122357142D01*
X163273809Y-122309523D01*
X163369047Y-122261904D01*
X163511904Y-122261904D01*
X163607142Y-122309523D01*
X163654761Y-122357142D01*
X163702380Y-122452380D01*
X163702380Y-122833333D01*
X162702380Y-122833333D01*
X162702380Y-122500000D01*
X162750000Y-122404761D01*
X162797619Y-122357142D01*
X162892857Y-122309523D01*
X162988095Y-122309523D01*
X163083333Y-122357142D01*
X163130952Y-122404761D01*
X163178571Y-122500000D01*
X163178571Y-122833333D01*
X162702380Y-121833333D02*
X163511904Y-121833333D01*
X163607142Y-121785714D01*
X163654761Y-121738095D01*
X163702380Y-121642857D01*
X163702380Y-121452380D01*
X163654761Y-121357142D01*
X163607142Y-121309523D01*
X163511904Y-121261904D01*
X162702380Y-121261904D01*
X163654761Y-120833333D02*
X163702380Y-120690476D01*
X163702380Y-120452380D01*
X163654761Y-120357142D01*
X163607142Y-120309523D01*
X163511904Y-120261904D01*
X163416666Y-120261904D01*
X163321428Y-120309523D01*
X163273809Y-120357142D01*
X163226190Y-120452380D01*
X163178571Y-120642857D01*
X163130952Y-120738095D01*
X163083333Y-120785714D01*
X162988095Y-120833333D01*
X162892857Y-120833333D01*
X162797619Y-120785714D01*
X162750000Y-120738095D01*
X162702380Y-120642857D01*
X162702380Y-120404761D01*
X162750000Y-120261904D01*
X161000000Y-101261904D02*
X160952380Y-101357142D01*
X160952380Y-101500000D01*
X161000000Y-101642857D01*
X161095238Y-101738095D01*
X161190476Y-101785714D01*
X161380952Y-101833333D01*
X161523809Y-101833333D01*
X161714285Y-101785714D01*
X161809523Y-101738095D01*
X161904761Y-101642857D01*
X161952380Y-101500000D01*
X161952380Y-101404761D01*
X161904761Y-101261904D01*
X161857142Y-101214285D01*
X161523809Y-101214285D01*
X161523809Y-101404761D01*
X161952380Y-100785714D02*
X160952380Y-100785714D01*
X161952380Y-100214285D01*
X160952380Y-100214285D01*
X161952380Y-99738095D02*
X160952380Y-99738095D01*
X160952380Y-99500000D01*
X161000000Y-99357142D01*
X161095238Y-99261904D01*
X161190476Y-99214285D01*
X161380952Y-99166666D01*
X161523809Y-99166666D01*
X161714285Y-99214285D01*
X161809523Y-99261904D01*
X161904761Y-99357142D01*
X161952380Y-99500000D01*
X161952380Y-99738095D01*
X160952380Y-96142857D02*
X161952380Y-95809523D01*
X160952380Y-95476190D01*
X161428571Y-94809523D02*
X161476190Y-94666666D01*
X161523809Y-94619047D01*
X161619047Y-94571428D01*
X161761904Y-94571428D01*
X161857142Y-94619047D01*
X161904761Y-94666666D01*
X161952380Y-94761904D01*
X161952380Y-95142857D01*
X160952380Y-95142857D01*
X160952380Y-94809523D01*
X161000000Y-94714285D01*
X161047619Y-94666666D01*
X161142857Y-94619047D01*
X161238095Y-94619047D01*
X161333333Y-94666666D01*
X161380952Y-94714285D01*
X161428571Y-94809523D01*
X161428571Y-95142857D01*
X161666666Y-94190476D02*
X161666666Y-93714285D01*
X161952380Y-94285714D02*
X160952380Y-93952380D01*
X161952380Y-93619047D01*
X160952380Y-93428571D02*
X160952380Y-92857142D01*
X161952380Y-93142857D02*
X160952380Y-93142857D01*
X148071428Y-85261904D02*
X148071428Y-84500000D01*
X148452380Y-84880952D02*
X147690476Y-84880952D01*
X148452380Y-83500000D02*
X148452380Y-84071428D01*
X148452380Y-83785714D02*
X147452380Y-83785714D01*
X147595238Y-83880952D01*
X147690476Y-83976190D01*
X147738095Y-84071428D01*
X147547619Y-83119047D02*
X147500000Y-83071428D01*
X147452380Y-82976190D01*
X147452380Y-82738095D01*
X147500000Y-82642857D01*
X147547619Y-82595238D01*
X147642857Y-82547619D01*
X147738095Y-82547619D01*
X147880952Y-82595238D01*
X148452380Y-83166666D01*
X148452380Y-82547619D01*
X147452380Y-82261904D02*
X148452380Y-81928571D01*
X147452380Y-81595238D01*
D12*
%TO.C,J1*%
X166550000Y-119700000D02*
X161700000Y-119700000D01*
X161700000Y-119700000D02*
X161700000Y-117700000D01*
X166550000Y-111300000D02*
X161700000Y-111300000D01*
X161700000Y-111300000D02*
X161700000Y-113300000D01*
X161404000Y-116830000D02*
X161150000Y-116576000D01*
X161150000Y-116576000D02*
X161150000Y-117084000D01*
X161150000Y-117084000D02*
X161404000Y-116830000D01*
%TO.C,C1*%
X153938748Y-108610000D02*
X154461252Y-108610000D01*
X153938748Y-107190000D02*
X154461252Y-107190000D01*
%TO.C,C2*%
X153938748Y-97890000D02*
X154461252Y-97890000D01*
X153938748Y-99310000D02*
X154461252Y-99310000D01*
%TO.C,C3*%
X149510000Y-122761252D02*
X149510000Y-122238748D01*
X148090000Y-122761252D02*
X148090000Y-122238748D01*
%TO.C,C4*%
X152488748Y-117540000D02*
X153011252Y-117540000D01*
X152488748Y-118960000D02*
X153011252Y-118960000D01*
%TO.C,D1*%
X159290000Y-103890000D02*
X159290000Y-106750000D01*
X161210000Y-103890000D02*
X159290000Y-103890000D01*
X161210000Y-106750000D02*
X161210000Y-103890000D01*
%TO.C,D2*%
X161540000Y-104750000D02*
X161540000Y-107610000D01*
X161540000Y-107610000D02*
X163460000Y-107610000D01*
X163460000Y-107610000D02*
X163460000Y-104750000D01*
%TO.C,L1*%
X153150000Y-125050000D02*
X152250000Y-125950000D01*
X155350000Y-125050000D02*
X153150000Y-125050000D01*
X156250000Y-125950000D02*
X155350000Y-125050000D01*
X156450000Y-129450000D02*
X156450000Y-128550000D01*
X152050000Y-129450000D02*
X156450000Y-129450000D01*
X152050000Y-128550000D02*
X152050000Y-129450000D01*
%TO.C,M1*%
X144670000Y-77500000D02*
X144670000Y-76170000D01*
X144670000Y-76170000D02*
X146000000Y-76170000D01*
X147270000Y-76170000D02*
X149870000Y-76170000D01*
X149870000Y-78830000D02*
X149870000Y-76170000D01*
X147270000Y-78830000D02*
X149870000Y-78830000D01*
X147270000Y-78830000D02*
X147270000Y-76170000D01*
%TO.C,R1*%
X158488748Y-101540000D02*
X159011252Y-101540000D01*
X158488748Y-102960000D02*
X159011252Y-102960000D01*
%TO.C,R2*%
X156890000Y-105988748D02*
X156890000Y-106511252D01*
X158310000Y-105988748D02*
X158310000Y-106511252D01*
%TO.C,SW1*%
X161500000Y-140445000D02*
X161500000Y-131555000D01*
X161500000Y-131555000D02*
X166300000Y-131555000D01*
X166300000Y-131555000D02*
X166300000Y-140445000D01*
X166300000Y-140445000D02*
X161500000Y-140445000D01*
%TO.C,U1*%
X155860000Y-104650000D02*
X155860000Y-102200000D01*
X152640000Y-102850000D02*
X152640000Y-104650000D01*
%TO.C,U2*%
X153350000Y-123860000D02*
X156300000Y-123860000D01*
X155150000Y-120640000D02*
X153350000Y-120640000D01*
%TO.C,TP1*%
X162600000Y-101700000D02*
X162600000Y-99300000D01*
X165000000Y-101700000D02*
X162600000Y-101700000D01*
X165000000Y-99300000D02*
X165000000Y-101700000D01*
X162600000Y-99300000D02*
X165000000Y-99300000D01*
%TO.C,TP2*%
X159800000Y-123200000D02*
X159800000Y-120800000D01*
X162200000Y-123200000D02*
X159800000Y-123200000D01*
X162200000Y-120800000D02*
X162200000Y-123200000D01*
X159800000Y-120800000D02*
X162200000Y-120800000D01*
%TO.C,TP3*%
X158300000Y-124800000D02*
X160700000Y-124800000D01*
X160700000Y-124800000D02*
X160700000Y-127200000D01*
X160700000Y-127200000D02*
X158300000Y-127200000D01*
X158300000Y-127200000D02*
X158300000Y-124800000D01*
%TO.C,TP4*%
X162500000Y-93300000D02*
X164900000Y-93300000D01*
X164900000Y-93300000D02*
X164900000Y-95700000D01*
X164900000Y-95700000D02*
X162500000Y-95700000D01*
X162500000Y-95700000D02*
X162500000Y-93300000D01*
%TO.C,TP5*%
X144300000Y-84700000D02*
X144300000Y-82300000D01*
X146700000Y-84700000D02*
X144300000Y-84700000D01*
X146700000Y-82300000D02*
X146700000Y-84700000D01*
X144300000Y-82300000D02*
X146700000Y-82300000D01*
%TO.C,J1*%
D11*
X160166666Y-111952380D02*
X160166666Y-112666666D01*
X160119047Y-112809523D01*
X160023809Y-112904761D01*
X159880952Y-112952380D01*
X159785714Y-112952380D01*
X161166666Y-112952380D02*
X160595238Y-112952380D01*
X160880952Y-112952380D02*
X160880952Y-111952380D01*
X160785714Y-112095238D01*
X160690476Y-112190476D01*
X160595238Y-112238095D01*
%TO.C,C1*%
X154033333Y-110107142D02*
X153985714Y-110154761D01*
X153842857Y-110202380D01*
X153747619Y-110202380D01*
X153604761Y-110154761D01*
X153509523Y-110059523D01*
X153461904Y-109964285D01*
X153414285Y-109773809D01*
X153414285Y-109630952D01*
X153461904Y-109440476D01*
X153509523Y-109345238D01*
X153604761Y-109250000D01*
X153747619Y-109202380D01*
X153842857Y-109202380D01*
X153985714Y-109250000D01*
X154033333Y-109297619D01*
X154985714Y-110202380D02*
X154414285Y-110202380D01*
X154700000Y-110202380D02*
X154700000Y-109202380D01*
X154604761Y-109345238D01*
X154509523Y-109440476D01*
X154414285Y-109488095D01*
%TO.C,C2*%
X154083333Y-100607142D02*
X154035714Y-100654761D01*
X153892857Y-100702380D01*
X153797619Y-100702380D01*
X153654761Y-100654761D01*
X153559523Y-100559523D01*
X153511904Y-100464285D01*
X153464285Y-100273809D01*
X153464285Y-100130952D01*
X153511904Y-99940476D01*
X153559523Y-99845238D01*
X153654761Y-99750000D01*
X153797619Y-99702380D01*
X153892857Y-99702380D01*
X154035714Y-99750000D01*
X154083333Y-99797619D01*
X154464285Y-99797619D02*
X154511904Y-99750000D01*
X154607142Y-99702380D01*
X154845238Y-99702380D01*
X154940476Y-99750000D01*
X154988095Y-99797619D01*
X155035714Y-99892857D01*
X155035714Y-99988095D01*
X154988095Y-100130952D01*
X154416666Y-100702380D01*
X155035714Y-100702380D01*
%TO.C,C3*%
X147607142Y-122666666D02*
X147654761Y-122714285D01*
X147702380Y-122857142D01*
X147702380Y-122952380D01*
X147654761Y-123095238D01*
X147559523Y-123190476D01*
X147464285Y-123238095D01*
X147273809Y-123285714D01*
X147130952Y-123285714D01*
X146940476Y-123238095D01*
X146845238Y-123190476D01*
X146750000Y-123095238D01*
X146702380Y-122952380D01*
X146702380Y-122857142D01*
X146750000Y-122714285D01*
X146797619Y-122666666D01*
X146702380Y-122333333D02*
X146702380Y-121714285D01*
X147083333Y-122047619D01*
X147083333Y-121904761D01*
X147130952Y-121809523D01*
X147178571Y-121761904D01*
X147273809Y-121714285D01*
X147511904Y-121714285D01*
X147607142Y-121761904D01*
X147654761Y-121809523D01*
X147702380Y-121904761D01*
X147702380Y-122190476D01*
X147654761Y-122285714D01*
X147607142Y-122333333D01*
%TO.C,C4*%
X152583333Y-116857142D02*
X152535714Y-116904761D01*
X152392857Y-116952380D01*
X152297619Y-116952380D01*
X152154761Y-116904761D01*
X152059523Y-116809523D01*
X152011904Y-116714285D01*
X151964285Y-116523809D01*
X151964285Y-116380952D01*
X152011904Y-116190476D01*
X152059523Y-116095238D01*
X152154761Y-116000000D01*
X152297619Y-115952380D01*
X152392857Y-115952380D01*
X152535714Y-116000000D01*
X152583333Y-116047619D01*
X153440476Y-116285714D02*
X153440476Y-116952380D01*
X153202380Y-115904761D02*
X152964285Y-116619047D01*
X153583333Y-116619047D01*
%TO.C,D1*%
X160702380Y-109488095D02*
X159702380Y-109488095D01*
X159702380Y-109250000D01*
X159750000Y-109107142D01*
X159845238Y-109011904D01*
X159940476Y-108964285D01*
X160130952Y-108916666D01*
X160273809Y-108916666D01*
X160464285Y-108964285D01*
X160559523Y-109011904D01*
X160654761Y-109107142D01*
X160702380Y-109250000D01*
X160702380Y-109488095D01*
X160702380Y-107964285D02*
X160702380Y-108535714D01*
X160702380Y-108250000D02*
X159702380Y-108250000D01*
X159845238Y-108345238D01*
X159940476Y-108440476D01*
X159988095Y-108535714D01*
%TO.C,D2*%
X162952380Y-109488095D02*
X161952380Y-109488095D01*
X161952380Y-109250000D01*
X162000000Y-109107142D01*
X162095238Y-109011904D01*
X162190476Y-108964285D01*
X162380952Y-108916666D01*
X162523809Y-108916666D01*
X162714285Y-108964285D01*
X162809523Y-109011904D01*
X162904761Y-109107142D01*
X162952380Y-109250000D01*
X162952380Y-109488095D01*
X162047619Y-108535714D02*
X162000000Y-108488095D01*
X161952380Y-108392857D01*
X161952380Y-108154761D01*
X162000000Y-108059523D01*
X162047619Y-108011904D01*
X162142857Y-107964285D01*
X162238095Y-107964285D01*
X162380952Y-108011904D01*
X162952380Y-108583333D01*
X162952380Y-107964285D01*
%TO.C,L1*%
X154083333Y-131452380D02*
X153607142Y-131452380D01*
X153607142Y-130452380D01*
X154940476Y-131452380D02*
X154369047Y-131452380D01*
X154654761Y-131452380D02*
X154654761Y-130452380D01*
X154559523Y-130595238D01*
X154464285Y-130690476D01*
X154369047Y-130738095D01*
%TO.C,M1*%
X142420476Y-77952380D02*
X142420476Y-76952380D01*
X142753809Y-77666666D01*
X143087142Y-76952380D01*
X143087142Y-77952380D01*
X144087142Y-77952380D02*
X143515714Y-77952380D01*
X143801428Y-77952380D02*
X143801428Y-76952380D01*
X143706190Y-77095238D01*
X143610952Y-77190476D01*
X143515714Y-77238095D01*
%TO.C,R1*%
X158583333Y-101052380D02*
X158250000Y-100576190D01*
X158011904Y-101052380D02*
X158011904Y-100052380D01*
X158392857Y-100052380D01*
X158488095Y-100100000D01*
X158535714Y-100147619D01*
X158583333Y-100242857D01*
X158583333Y-100385714D01*
X158535714Y-100480952D01*
X158488095Y-100528571D01*
X158392857Y-100576190D01*
X158011904Y-100576190D01*
X159535714Y-101052380D02*
X158964285Y-101052380D01*
X159250000Y-101052380D02*
X159250000Y-100052380D01*
X159154761Y-100195238D01*
X159059523Y-100290476D01*
X158964285Y-100338095D01*
%TO.C,R2*%
X158202380Y-109416666D02*
X157726190Y-109750000D01*
X158202380Y-109988095D02*
X157202380Y-109988095D01*
X157202380Y-109607142D01*
X157250000Y-109511904D01*
X157297619Y-109464285D01*
X157392857Y-109416666D01*
X157535714Y-109416666D01*
X157630952Y-109464285D01*
X157678571Y-109511904D01*
X157726190Y-109607142D01*
X157726190Y-109988095D01*
X157297619Y-109035714D02*
X157250000Y-108988095D01*
X157202380Y-108892857D01*
X157202380Y-108654761D01*
X157250000Y-108559523D01*
X157297619Y-108511904D01*
X157392857Y-108464285D01*
X157488095Y-108464285D01*
X157630952Y-108511904D01*
X158202380Y-109083333D01*
X158202380Y-108464285D01*
%TO.C,SW1*%
X162416666Y-130404761D02*
X162559523Y-130452380D01*
X162797619Y-130452380D01*
X162892857Y-130404761D01*
X162940476Y-130357142D01*
X162988095Y-130261904D01*
X162988095Y-130166666D01*
X162940476Y-130071428D01*
X162892857Y-130023809D01*
X162797619Y-129976190D01*
X162607142Y-129928571D01*
X162511904Y-129880952D01*
X162464285Y-129833333D01*
X162416666Y-129738095D01*
X162416666Y-129642857D01*
X162464285Y-129547619D01*
X162511904Y-129500000D01*
X162607142Y-129452380D01*
X162845238Y-129452380D01*
X162988095Y-129500000D01*
X163321428Y-129452380D02*
X163559523Y-130452380D01*
X163750000Y-129738095D01*
X163940476Y-130452380D01*
X164178571Y-129452380D01*
X165083333Y-130452380D02*
X164511904Y-130452380D01*
X164797619Y-130452380D02*
X164797619Y-129452380D01*
X164702380Y-129595238D01*
X164607142Y-129690476D01*
X164511904Y-129738095D01*
%TO.C,U1*%
X150952380Y-104261904D02*
X151761904Y-104261904D01*
X151857142Y-104214285D01*
X151904761Y-104166666D01*
X151952380Y-104071428D01*
X151952380Y-103880952D01*
X151904761Y-103785714D01*
X151857142Y-103738095D01*
X151761904Y-103690476D01*
X150952380Y-103690476D01*
X151952380Y-102690476D02*
X151952380Y-103261904D01*
X151952380Y-102976190D02*
X150952380Y-102976190D01*
X151095238Y-103071428D01*
X151190476Y-103166666D01*
X151238095Y-103261904D01*
%TO.C,U2*%
X150452380Y-123261904D02*
X151261904Y-123261904D01*
X151357142Y-123214285D01*
X151404761Y-123166666D01*
X151452380Y-123071428D01*
X151452380Y-122880952D01*
X151404761Y-122785714D01*
X151357142Y-122738095D01*
X151261904Y-122690476D01*
X150452380Y-122690476D01*
X150547619Y-122261904D02*
X150500000Y-122214285D01*
X150452380Y-122119047D01*
X150452380Y-121880952D01*
X150500000Y-121785714D01*
X150547619Y-121738095D01*
X150642857Y-121690476D01*
X150738095Y-121690476D01*
X150880952Y-121738095D01*
X151452380Y-122309523D01*
X151452380Y-121690476D01*
%TO.C,TP1*%
X162488095Y-97702380D02*
X163059523Y-97702380D01*
X162773809Y-98702380D02*
X162773809Y-97702380D01*
X163392857Y-98702380D02*
X163392857Y-97702380D01*
X163773809Y-97702380D01*
X163869047Y-97750000D01*
X163916666Y-97797619D01*
X163964285Y-97892857D01*
X163964285Y-98035714D01*
X163916666Y-98130952D01*
X163869047Y-98178571D01*
X163773809Y-98226190D01*
X163392857Y-98226190D01*
X164916666Y-98702380D02*
X164345238Y-98702380D01*
X164630952Y-98702380D02*
X164630952Y-97702380D01*
X164535714Y-97845238D01*
X164440476Y-97940476D01*
X164345238Y-97988095D01*
%TO.C,TP2*%
X158202380Y-123261904D02*
X158202380Y-122690476D01*
X159202380Y-122976190D02*
X158202380Y-122976190D01*
X159202380Y-122357142D02*
X158202380Y-122357142D01*
X158202380Y-121976190D01*
X158250000Y-121880952D01*
X158297619Y-121833333D01*
X158392857Y-121785714D01*
X158535714Y-121785714D01*
X158630952Y-121833333D01*
X158678571Y-121880952D01*
X158726190Y-121976190D01*
X158726190Y-122357142D01*
X158297619Y-121404761D02*
X158250000Y-121357142D01*
X158202380Y-121261904D01*
X158202380Y-121023809D01*
X158250000Y-120928571D01*
X158297619Y-120880952D01*
X158392857Y-120833333D01*
X158488095Y-120833333D01*
X158630952Y-120880952D01*
X159202380Y-121452380D01*
X159202380Y-120833333D01*
%TO.C,TP3*%
X158238095Y-127702380D02*
X158809523Y-127702380D01*
X158523809Y-128702380D02*
X158523809Y-127702380D01*
X159142857Y-128702380D02*
X159142857Y-127702380D01*
X159523809Y-127702380D01*
X159619047Y-127750000D01*
X159666666Y-127797619D01*
X159714285Y-127892857D01*
X159714285Y-128035714D01*
X159666666Y-128130952D01*
X159619047Y-128178571D01*
X159523809Y-128226190D01*
X159142857Y-128226190D01*
X160047619Y-127702380D02*
X160666666Y-127702380D01*
X160333333Y-128083333D01*
X160476190Y-128083333D01*
X160571428Y-128130952D01*
X160619047Y-128178571D01*
X160666666Y-128273809D01*
X160666666Y-128511904D01*
X160619047Y-128607142D01*
X160571428Y-128654761D01*
X160476190Y-128702380D01*
X160190476Y-128702380D01*
X160095238Y-128654761D01*
X160047619Y-128607142D01*
%TO.C,TP4*%
X162238095Y-91702380D02*
X162809523Y-91702380D01*
X162523809Y-92702380D02*
X162523809Y-91702380D01*
X163142857Y-92702380D02*
X163142857Y-91702380D01*
X163523809Y-91702380D01*
X163619047Y-91750000D01*
X163666666Y-91797619D01*
X163714285Y-91892857D01*
X163714285Y-92035714D01*
X163666666Y-92130952D01*
X163619047Y-92178571D01*
X163523809Y-92226190D01*
X163142857Y-92226190D01*
X164571428Y-92035714D02*
X164571428Y-92702380D01*
X164333333Y-91654761D02*
X164095238Y-92369047D01*
X164714285Y-92369047D01*
%TO.C,TP5*%
X144238095Y-80702380D02*
X144809523Y-80702380D01*
X144523809Y-81702380D02*
X144523809Y-80702380D01*
X145142857Y-81702380D02*
X145142857Y-80702380D01*
X145523809Y-80702380D01*
X145619047Y-80750000D01*
X145666666Y-80797619D01*
X145714285Y-80892857D01*
X145714285Y-81035714D01*
X145666666Y-81130952D01*
X145619047Y-81178571D01*
X145523809Y-81226190D01*
X145142857Y-81226190D01*
X146619047Y-80702380D02*
X146142857Y-80702380D01*
X146095238Y-81178571D01*
X146142857Y-81130952D01*
X146238095Y-81083333D01*
X146476190Y-81083333D01*
X146571428Y-81130952D01*
X146619047Y-81178571D01*
X146666666Y-81273809D01*
X146666666Y-81511904D01*
X146619047Y-81607142D01*
X146571428Y-81654761D01*
X146476190Y-81702380D01*
X146238095Y-81702380D01*
X146142857Y-81654761D01*
X146095238Y-81607142D01*
%TD*%
M02*
