M48
; DRILL file {KiCad 5.1.6} date Mon May 18 18:09:23 2020
; FORMAT={2:4/ absolute / inch / suppress trailing zeros}
; #@! TF.CreationDate,2020-05-18T18:09:23+02:00
; #@! TF.GenerationSoftware,Kicad,Pcbnew,5.1.6
FMAT,2
INCH,LZ
T1C0.0157
T2C0.0197
T3C0.0217
T4C0.0315
T5C0.0394
T6C0.0720
T7C0.0591
T8C0.1693
%
G90
G05
T1
X057087Y-03189
X05748Y-045984
X058031Y-047323
X058031Y-047874
X058346Y-038268
X058346Y-03874
X058346Y-039685
X058346Y-040157
X058346Y-04063
X058386Y-04122
X058386Y-041693
X058386Y-042165
X058386Y-042638
X058386Y-04311
X058386Y-043583
X058386Y-044055
X058386Y-044528
X058386Y-045
X05878Y-047323
X058819Y-038268
X058819Y-03874
X058819Y-039213
X058819Y-039685
X058819Y-040157
X058819Y-04063
X058858Y-04122
X058858Y-041693
X058858Y-042165
X058858Y-042638
X058858Y-04311
X058858Y-043583
X058858Y-044055
X058858Y-044528
X058858Y-045
X059291Y-038268
X059291Y-03874
X059291Y-039213
X059291Y-039685
X059291Y-040157
X059291Y-04063
X059331Y-04122
X059331Y-041693
X059331Y-042165
X059331Y-042638
X059331Y-04311
X059331Y-043583
X059331Y-044055
X059331Y-044528
X059331Y-045
X059764Y-038268
X059764Y-03874
X059764Y-039213
X059764Y-039685
X059764Y-040157
X059764Y-04063
X059803Y-04122
X059803Y-041693
X059803Y-042165
X059803Y-042638
X059803Y-04311
X059803Y-043583
X059803Y-044055
X059803Y-044528
X059803Y-045
X060276Y-04311
X060276Y-043583
X060276Y-044055
X060276Y-044528
X060276Y-045
X060512Y-047165
X060945Y-039449
X060945Y-043228
X060945Y-043701
X060945Y-044173
X060984Y-047165
X061181Y-046535
X061417Y-039449
X061417Y-043228
X061417Y-043701
X061417Y-044173
X061417Y-047008
X061654Y-046535
X06189Y-038661
X06189Y-039055
X06189Y-039449
X06189Y-042756
X06189Y-043228
X06189Y-043701
X06189Y-044173
X06189Y-047008
X06189Y-04748
X06189Y-047953
X062362Y-038661
X062362Y-039055
X062362Y-039449
X062362Y-042756
X062362Y-043228
X062362Y-043701
X062362Y-044173
X062362Y-047008
X062362Y-04748
X062362Y-047953
X062835Y-038661
X062835Y-039055
X062835Y-039449
X063287Y-042697
X063287Y-043169
X063287Y-043642
X063287Y-044114
X063287Y-044587
X06376Y-042697
X06376Y-043169
X064232Y-042697
X064232Y-043169
X064567Y-038583
X064705Y-042697
X064705Y-043169
X065177Y-042697
X065177Y-043169
T4
X064528Y-052756
X064528Y-053543
X064528Y-054331
T5
X05748Y-030512
X05848Y-030512
T6
X06022Y-037205
X06022Y-056102
X06122Y-034205
X06122Y-059102
X06222Y-037205
X06222Y-056102
T7
X064528Y-051929
X064528Y-055157
T8
X054035Y-031398
X054035Y-059547
T2
G00X064872Y-044094
M15
G01X065128Y-044094
M16
G05
G00X064872Y-04685
M15
G01X065128Y-04685
M16
G05
T3
G00X063937Y-044547
M15
G01X063937Y-044429
M16
G05
G00X063937Y-046516
M15
G01X063937Y-046398
M16
G05
T0
M30
