%TF.GenerationSoftware,KiCad,Pcbnew,5.1.6*%
%TF.CreationDate,2020-05-18T18:09:20+02:00*%
%TF.ProjectId,solder-snorter,736f6c64-6572-42d7-936e-6f727465722e,rev?*%
%TF.SameCoordinates,Original*%
%TF.FileFunction,Soldermask,Bot*%
%TF.FilePolarity,Negative*%
%FSLAX46Y46*%
G04 Gerber Fmt 4.6, Leading zero omitted, Abs format (unit mm)*
G04 Created by KiCad (PCBNEW 5.1.6) date 2020-05-18 18:09:20*
%MOMM*%
%LPD*%
G01*
G04 APERTURE LIST*
%ADD10C,0.100000*%
G04 APERTURE END LIST*
D10*
G36*
X137600215Y-149127541D02*
G01*
X137877132Y-149182623D01*
X138268407Y-149344695D01*
X138620545Y-149579986D01*
X138920014Y-149879455D01*
X139155305Y-150231593D01*
X139317377Y-150622868D01*
X139400000Y-151038243D01*
X139400000Y-151461757D01*
X139317377Y-151877132D01*
X139155305Y-152268407D01*
X138920014Y-152620545D01*
X138620545Y-152920014D01*
X138268407Y-153155305D01*
X137877132Y-153317377D01*
X137600215Y-153372459D01*
X137461758Y-153400000D01*
X137038242Y-153400000D01*
X136899785Y-153372459D01*
X136622868Y-153317377D01*
X136231593Y-153155305D01*
X135879455Y-152920014D01*
X135579986Y-152620545D01*
X135344695Y-152268407D01*
X135182623Y-151877132D01*
X135100000Y-151461757D01*
X135100000Y-151038243D01*
X135182623Y-150622868D01*
X135344695Y-150231593D01*
X135579986Y-149879455D01*
X135879455Y-149579986D01*
X136231593Y-149344695D01*
X136622868Y-149182623D01*
X136899785Y-149127541D01*
X137038242Y-149100000D01*
X137461758Y-149100000D01*
X137600215Y-149127541D01*
G37*
G36*
X155785059Y-148392417D02*
G01*
X156010456Y-148437251D01*
X156328936Y-148569170D01*
X156615560Y-148760686D01*
X156859314Y-149004440D01*
X157050830Y-149291064D01*
X157182749Y-149609544D01*
X157182749Y-149609546D01*
X157236438Y-149879456D01*
X157250000Y-149947640D01*
X157250000Y-150292360D01*
X157182749Y-150630456D01*
X157050830Y-150948936D01*
X156859314Y-151235560D01*
X156615560Y-151479314D01*
X156328936Y-151670830D01*
X156010456Y-151802749D01*
X155785059Y-151847583D01*
X155672361Y-151870000D01*
X155327639Y-151870000D01*
X155214941Y-151847583D01*
X154989544Y-151802749D01*
X154671064Y-151670830D01*
X154384440Y-151479314D01*
X154140686Y-151235560D01*
X153949170Y-150948936D01*
X153817251Y-150630456D01*
X153750000Y-150292360D01*
X153750000Y-149947640D01*
X153763563Y-149879456D01*
X153817251Y-149609546D01*
X153817251Y-149609544D01*
X153949170Y-149291064D01*
X154140686Y-149004440D01*
X154384440Y-148760686D01*
X154671064Y-148569170D01*
X154989544Y-148437251D01*
X155214941Y-148392417D01*
X155327639Y-148370000D01*
X155672361Y-148370000D01*
X155785059Y-148392417D01*
G37*
G36*
X158285966Y-140764641D02*
G01*
X158550456Y-140817251D01*
X158868936Y-140949170D01*
X159155560Y-141140686D01*
X159399314Y-141384440D01*
X159590830Y-141671064D01*
X159722749Y-141989544D01*
X159790000Y-142327640D01*
X159790000Y-142672360D01*
X159722749Y-143010456D01*
X159590830Y-143328936D01*
X159399314Y-143615560D01*
X159155560Y-143859314D01*
X158868936Y-144050830D01*
X158550456Y-144182749D01*
X158325059Y-144227583D01*
X158212361Y-144250000D01*
X157867639Y-144250000D01*
X157754941Y-144227583D01*
X157529544Y-144182749D01*
X157211064Y-144050830D01*
X156924440Y-143859314D01*
X156680686Y-143615560D01*
X156489170Y-143328936D01*
X156357251Y-143010456D01*
X156290000Y-142672360D01*
X156290000Y-142327640D01*
X156357251Y-141989544D01*
X156489170Y-141671064D01*
X156680686Y-141384440D01*
X156924440Y-141140686D01*
X157211064Y-140949170D01*
X157529544Y-140817251D01*
X157794034Y-140764641D01*
X157867639Y-140750000D01*
X158212361Y-140750000D01*
X158285966Y-140764641D01*
G37*
G36*
X153205966Y-140764641D02*
G01*
X153470456Y-140817251D01*
X153788936Y-140949170D01*
X154075560Y-141140686D01*
X154319314Y-141384440D01*
X154510830Y-141671064D01*
X154642749Y-141989544D01*
X154710000Y-142327640D01*
X154710000Y-142672360D01*
X154642749Y-143010456D01*
X154510830Y-143328936D01*
X154319314Y-143615560D01*
X154075560Y-143859314D01*
X153788936Y-144050830D01*
X153470456Y-144182749D01*
X153245059Y-144227583D01*
X153132361Y-144250000D01*
X152787639Y-144250000D01*
X152674941Y-144227583D01*
X152449544Y-144182749D01*
X152131064Y-144050830D01*
X151844440Y-143859314D01*
X151600686Y-143615560D01*
X151409170Y-143328936D01*
X151277251Y-143010456D01*
X151210000Y-142672360D01*
X151210000Y-142327640D01*
X151277251Y-141989544D01*
X151409170Y-141671064D01*
X151600686Y-141384440D01*
X151844440Y-141140686D01*
X152131064Y-140949170D01*
X152449544Y-140817251D01*
X152714034Y-140764641D01*
X152787639Y-140750000D01*
X153132361Y-140750000D01*
X153205966Y-140764641D01*
G37*
G36*
X164118765Y-139378821D02*
G01*
X164255257Y-139435358D01*
X164378096Y-139517436D01*
X164482564Y-139621904D01*
X164564642Y-139744743D01*
X164621179Y-139881235D01*
X164650000Y-140026130D01*
X164650000Y-140173870D01*
X164621179Y-140318765D01*
X164564642Y-140455257D01*
X164482564Y-140578096D01*
X164378096Y-140682564D01*
X164255257Y-140764642D01*
X164118765Y-140821179D01*
X163973870Y-140850000D01*
X163826130Y-140850000D01*
X163681235Y-140821179D01*
X163544743Y-140764642D01*
X163421904Y-140682564D01*
X163317436Y-140578096D01*
X163235358Y-140455257D01*
X163178821Y-140318765D01*
X163150000Y-140173870D01*
X163150000Y-140026130D01*
X163178821Y-139881235D01*
X163235358Y-139744743D01*
X163317436Y-139621904D01*
X163421904Y-139517436D01*
X163544743Y-139435358D01*
X163681235Y-139378821D01*
X163826130Y-139350000D01*
X163973870Y-139350000D01*
X164118765Y-139378821D01*
G37*
G36*
X164650000Y-138750000D02*
G01*
X163150000Y-138750000D01*
X163150000Y-137250000D01*
X164650000Y-137250000D01*
X164650000Y-138750000D01*
G37*
G36*
X164118765Y-135278821D02*
G01*
X164255257Y-135335358D01*
X164378096Y-135417436D01*
X164482564Y-135521904D01*
X164564642Y-135644743D01*
X164621179Y-135781235D01*
X164650000Y-135926130D01*
X164650000Y-136073870D01*
X164621179Y-136218765D01*
X164564642Y-136355257D01*
X164482564Y-136478096D01*
X164378096Y-136582564D01*
X164255257Y-136664642D01*
X164118765Y-136721179D01*
X163973870Y-136750000D01*
X163826130Y-136750000D01*
X163681235Y-136721179D01*
X163544743Y-136664642D01*
X163421904Y-136582564D01*
X163317436Y-136478096D01*
X163235358Y-136355257D01*
X163178821Y-136218765D01*
X163150000Y-136073870D01*
X163150000Y-135926130D01*
X163178821Y-135781235D01*
X163235358Y-135644743D01*
X163317436Y-135521904D01*
X163421904Y-135417436D01*
X163544743Y-135335358D01*
X163681235Y-135278821D01*
X163826130Y-135250000D01*
X163973870Y-135250000D01*
X164118765Y-135278821D01*
G37*
G36*
X164118765Y-133278821D02*
G01*
X164255257Y-133335358D01*
X164378096Y-133417436D01*
X164482564Y-133521904D01*
X164564642Y-133644743D01*
X164621179Y-133781235D01*
X164650000Y-133926130D01*
X164650000Y-134073870D01*
X164621179Y-134218765D01*
X164564642Y-134355257D01*
X164482564Y-134478096D01*
X164378096Y-134582564D01*
X164255257Y-134664642D01*
X164118765Y-134721179D01*
X163973870Y-134750000D01*
X163826130Y-134750000D01*
X163681235Y-134721179D01*
X163544743Y-134664642D01*
X163421904Y-134582564D01*
X163317436Y-134478096D01*
X163235358Y-134355257D01*
X163178821Y-134218765D01*
X163150000Y-134073870D01*
X163150000Y-133926130D01*
X163178821Y-133781235D01*
X163235358Y-133644743D01*
X163317436Y-133521904D01*
X163421904Y-133417436D01*
X163544743Y-133335358D01*
X163681235Y-133278821D01*
X163826130Y-133250000D01*
X163973870Y-133250000D01*
X164118765Y-133278821D01*
G37*
G36*
X164118765Y-131178821D02*
G01*
X164255257Y-131235358D01*
X164378096Y-131317436D01*
X164482564Y-131421904D01*
X164564642Y-131544743D01*
X164621179Y-131681235D01*
X164650000Y-131826130D01*
X164650000Y-131973870D01*
X164621179Y-132118765D01*
X164564642Y-132255257D01*
X164482564Y-132378096D01*
X164378096Y-132482564D01*
X164255257Y-132564642D01*
X164118765Y-132621179D01*
X163973870Y-132650000D01*
X163826130Y-132650000D01*
X163681235Y-132621179D01*
X163544743Y-132564642D01*
X163421904Y-132482564D01*
X163317436Y-132378096D01*
X163235358Y-132255257D01*
X163178821Y-132118765D01*
X163150000Y-131973870D01*
X163150000Y-131826130D01*
X163178821Y-131681235D01*
X163235358Y-131544743D01*
X163317436Y-131421904D01*
X163421904Y-131317436D01*
X163544743Y-131235358D01*
X163681235Y-131178821D01*
X163826130Y-131150000D01*
X163973870Y-131150000D01*
X164118765Y-131178821D01*
G37*
G36*
X165472545Y-118509606D02*
G01*
X165566342Y-118538059D01*
X165652785Y-118584264D01*
X165728553Y-118646446D01*
X165790735Y-118722214D01*
X165836940Y-118808657D01*
X165865393Y-118902454D01*
X165875000Y-118999999D01*
X165875000Y-119000001D01*
X165865393Y-119097546D01*
X165836940Y-119191343D01*
X165790735Y-119277786D01*
X165728553Y-119353554D01*
X165652785Y-119415736D01*
X165566342Y-119461941D01*
X165472545Y-119490394D01*
X165375000Y-119500001D01*
X164825000Y-119500001D01*
X164727455Y-119490394D01*
X164633658Y-119461941D01*
X164547215Y-119415736D01*
X164471447Y-119353554D01*
X164409265Y-119277786D01*
X164363060Y-119191343D01*
X164334607Y-119097546D01*
X164325000Y-119000001D01*
X164325000Y-118999999D01*
X164334607Y-118902454D01*
X164363060Y-118808657D01*
X164409265Y-118722214D01*
X164471447Y-118646446D01*
X164547215Y-118584264D01*
X164633658Y-118538059D01*
X164727455Y-118509606D01*
X164825000Y-118499999D01*
X165375000Y-118499999D01*
X165472545Y-118509606D01*
G37*
G36*
X162492669Y-117384127D02*
G01*
X162581776Y-117411157D01*
X162663897Y-117455052D01*
X162735877Y-117514124D01*
X162794949Y-117586104D01*
X162838844Y-117668225D01*
X162865874Y-117757332D01*
X162875001Y-117850000D01*
X162875001Y-118150000D01*
X162865874Y-118242668D01*
X162838844Y-118331775D01*
X162794949Y-118413896D01*
X162735877Y-118485876D01*
X162663897Y-118544948D01*
X162581776Y-118588843D01*
X162492669Y-118615873D01*
X162400001Y-118625000D01*
X162399999Y-118625000D01*
X162307331Y-118615873D01*
X162218224Y-118588843D01*
X162136103Y-118544948D01*
X162064123Y-118485876D01*
X162005051Y-118413896D01*
X161961156Y-118331775D01*
X161934126Y-118242668D01*
X161924999Y-118150000D01*
X161924999Y-117850000D01*
X161934126Y-117757332D01*
X161961156Y-117668225D01*
X162005051Y-117586104D01*
X162064123Y-117514124D01*
X162136103Y-117455052D01*
X162218224Y-117411157D01*
X162307331Y-117384127D01*
X162399999Y-117375000D01*
X162400001Y-117375000D01*
X162492669Y-117384127D01*
G37*
G36*
X162492669Y-112384127D02*
G01*
X162581776Y-112411157D01*
X162663897Y-112455052D01*
X162735877Y-112514124D01*
X162794949Y-112586104D01*
X162838844Y-112668225D01*
X162865874Y-112757332D01*
X162875001Y-112850000D01*
X162875001Y-113150000D01*
X162865874Y-113242668D01*
X162838844Y-113331775D01*
X162794949Y-113413896D01*
X162735877Y-113485876D01*
X162663897Y-113544948D01*
X162581776Y-113588843D01*
X162492669Y-113615873D01*
X162400001Y-113625000D01*
X162399999Y-113625000D01*
X162307331Y-113615873D01*
X162218224Y-113588843D01*
X162136103Y-113544948D01*
X162064123Y-113485876D01*
X162005051Y-113413896D01*
X161961156Y-113331775D01*
X161934126Y-113242668D01*
X161924999Y-113150000D01*
X161924999Y-112850000D01*
X161934126Y-112757332D01*
X161961156Y-112668225D01*
X162005051Y-112586104D01*
X162064123Y-112514124D01*
X162136103Y-112455052D01*
X162218224Y-112411157D01*
X162307331Y-112384127D01*
X162399999Y-112375000D01*
X162400001Y-112375000D01*
X162492669Y-112384127D01*
G37*
G36*
X165472545Y-111509606D02*
G01*
X165566342Y-111538059D01*
X165652785Y-111584264D01*
X165728553Y-111646446D01*
X165790735Y-111722214D01*
X165836940Y-111808657D01*
X165865393Y-111902454D01*
X165875000Y-111999999D01*
X165875000Y-112000001D01*
X165865393Y-112097546D01*
X165836940Y-112191343D01*
X165790735Y-112277786D01*
X165728553Y-112353554D01*
X165652785Y-112415736D01*
X165566342Y-112461941D01*
X165472545Y-112490394D01*
X165375000Y-112500001D01*
X164825000Y-112500001D01*
X164727455Y-112490394D01*
X164633658Y-112461941D01*
X164547215Y-112415736D01*
X164471447Y-112353554D01*
X164409265Y-112277786D01*
X164363060Y-112191343D01*
X164334607Y-112097546D01*
X164325000Y-112000001D01*
X164325000Y-111999999D01*
X164334607Y-111902454D01*
X164363060Y-111808657D01*
X164409265Y-111722214D01*
X164471447Y-111646446D01*
X164547215Y-111584264D01*
X164633658Y-111538059D01*
X164727455Y-111509606D01*
X164825000Y-111499999D01*
X165375000Y-111499999D01*
X165472545Y-111509606D01*
G37*
G36*
X153245059Y-92772417D02*
G01*
X153470456Y-92817251D01*
X153788936Y-92949170D01*
X154075560Y-93140686D01*
X154319314Y-93384440D01*
X154510830Y-93671064D01*
X154642749Y-93989544D01*
X154710000Y-94327640D01*
X154710000Y-94672360D01*
X154642749Y-95010456D01*
X154510830Y-95328936D01*
X154319314Y-95615560D01*
X154075560Y-95859314D01*
X153788936Y-96050830D01*
X153470456Y-96182749D01*
X153245059Y-96227583D01*
X153132361Y-96250000D01*
X152787639Y-96250000D01*
X152674941Y-96227583D01*
X152449544Y-96182749D01*
X152131064Y-96050830D01*
X151844440Y-95859314D01*
X151600686Y-95615560D01*
X151409170Y-95328936D01*
X151277251Y-95010456D01*
X151210000Y-94672360D01*
X151210000Y-94327640D01*
X151277251Y-93989544D01*
X151409170Y-93671064D01*
X151600686Y-93384440D01*
X151844440Y-93140686D01*
X152131064Y-92949170D01*
X152449544Y-92817251D01*
X152674941Y-92772417D01*
X152787639Y-92750000D01*
X153132361Y-92750000D01*
X153245059Y-92772417D01*
G37*
G36*
X158325059Y-92772417D02*
G01*
X158550456Y-92817251D01*
X158868936Y-92949170D01*
X159155560Y-93140686D01*
X159399314Y-93384440D01*
X159590830Y-93671064D01*
X159722749Y-93989544D01*
X159790000Y-94327640D01*
X159790000Y-94672360D01*
X159722749Y-95010456D01*
X159590830Y-95328936D01*
X159399314Y-95615560D01*
X159155560Y-95859314D01*
X158868936Y-96050830D01*
X158550456Y-96182749D01*
X158325059Y-96227583D01*
X158212361Y-96250000D01*
X157867639Y-96250000D01*
X157754941Y-96227583D01*
X157529544Y-96182749D01*
X157211064Y-96050830D01*
X156924440Y-95859314D01*
X156680686Y-95615560D01*
X156489170Y-95328936D01*
X156357251Y-95010456D01*
X156290000Y-94672360D01*
X156290000Y-94327640D01*
X156357251Y-93989544D01*
X156489170Y-93671064D01*
X156680686Y-93384440D01*
X156924440Y-93140686D01*
X157211064Y-92949170D01*
X157529544Y-92817251D01*
X157754941Y-92772417D01*
X157867639Y-92750000D01*
X158212361Y-92750000D01*
X158325059Y-92772417D01*
G37*
G36*
X155785059Y-85152417D02*
G01*
X156010456Y-85197251D01*
X156328936Y-85329170D01*
X156615560Y-85520686D01*
X156859314Y-85764440D01*
X157050830Y-86051064D01*
X157182749Y-86369544D01*
X157250000Y-86707640D01*
X157250000Y-87052360D01*
X157182749Y-87390456D01*
X157050830Y-87708936D01*
X156859314Y-87995560D01*
X156615560Y-88239314D01*
X156328936Y-88430830D01*
X156010456Y-88562749D01*
X155785059Y-88607583D01*
X155672361Y-88630000D01*
X155327639Y-88630000D01*
X155214941Y-88607583D01*
X154989544Y-88562749D01*
X154671064Y-88430830D01*
X154384440Y-88239314D01*
X154140686Y-87995560D01*
X153949170Y-87708936D01*
X153817251Y-87390456D01*
X153750000Y-87052360D01*
X153750000Y-86707640D01*
X153817251Y-86369544D01*
X153949170Y-86051064D01*
X154140686Y-85764440D01*
X154384440Y-85520686D01*
X154671064Y-85329170D01*
X154989544Y-85197251D01*
X155214941Y-85152417D01*
X155327639Y-85130000D01*
X155672361Y-85130000D01*
X155785059Y-85152417D01*
G37*
G36*
X137600215Y-77627541D02*
G01*
X137877132Y-77682623D01*
X138268407Y-77844695D01*
X138355105Y-77902625D01*
X138563462Y-78041844D01*
X138620545Y-78079986D01*
X138920014Y-78379455D01*
X139155305Y-78731593D01*
X139317377Y-79122868D01*
X139400000Y-79538243D01*
X139400000Y-79961757D01*
X139317377Y-80377132D01*
X139155305Y-80768407D01*
X138920014Y-81120545D01*
X138620545Y-81420014D01*
X138268407Y-81655305D01*
X137877132Y-81817377D01*
X137600215Y-81872459D01*
X137461758Y-81900000D01*
X137038242Y-81900000D01*
X136899785Y-81872459D01*
X136622868Y-81817377D01*
X136231593Y-81655305D01*
X135879455Y-81420014D01*
X135579986Y-81120545D01*
X135344695Y-80768407D01*
X135182623Y-80377132D01*
X135100000Y-79961757D01*
X135100000Y-79538243D01*
X135182623Y-79122868D01*
X135344695Y-78731593D01*
X135579986Y-78379455D01*
X135879455Y-78079986D01*
X135936539Y-78041844D01*
X136144895Y-77902625D01*
X136231593Y-77844695D01*
X136622868Y-77682623D01*
X136899785Y-77627541D01*
X137038242Y-77600000D01*
X137461758Y-77600000D01*
X137600215Y-77627541D01*
G37*
G36*
X146850000Y-78350000D02*
G01*
X145150000Y-78350000D01*
X145150000Y-76650000D01*
X146850000Y-76650000D01*
X146850000Y-78350000D01*
G37*
G36*
X148787934Y-76682664D02*
G01*
X148942625Y-76746739D01*
X148942626Y-76746740D01*
X149081844Y-76839762D01*
X149200238Y-76958156D01*
X149200239Y-76958158D01*
X149293261Y-77097375D01*
X149357336Y-77252066D01*
X149390000Y-77416281D01*
X149390000Y-77583719D01*
X149357336Y-77747934D01*
X149293261Y-77902625D01*
X149293260Y-77902626D01*
X149200238Y-78041844D01*
X149081844Y-78160238D01*
X149011762Y-78207065D01*
X148942625Y-78253261D01*
X148787934Y-78317336D01*
X148623719Y-78350000D01*
X148456281Y-78350000D01*
X148292066Y-78317336D01*
X148137375Y-78253261D01*
X148068238Y-78207065D01*
X147998156Y-78160238D01*
X147879762Y-78041844D01*
X147786740Y-77902626D01*
X147786739Y-77902625D01*
X147722664Y-77747934D01*
X147690000Y-77583719D01*
X147690000Y-77416281D01*
X147722664Y-77252066D01*
X147786739Y-77097375D01*
X147879761Y-76958158D01*
X147879762Y-76958156D01*
X147998156Y-76839762D01*
X148137374Y-76746740D01*
X148137375Y-76746739D01*
X148292066Y-76682664D01*
X148456281Y-76650000D01*
X148623719Y-76650000D01*
X148787934Y-76682664D01*
G37*
M02*
