%TF.GenerationSoftware,KiCad,Pcbnew,5.1.6*%
%TF.CreationDate,2020-05-18T18:09:20+02:00*%
%TF.ProjectId,solder-snorter,736f6c64-6572-42d7-936e-6f727465722e,rev?*%
%TF.SameCoordinates,Original*%
%TF.FileFunction,Copper,L2,Bot*%
%TF.FilePolarity,Positive*%
%FSLAX46Y46*%
G04 Gerber Fmt 4.6, Leading zero omitted, Abs format (unit mm)*
G04 Created by KiCad (PCBNEW 5.1.6) date 2020-05-18 18:09:20*
%MOMM*%
%LPD*%
G01*
G04 APERTURE LIST*
%TA.AperFunction,ComponentPad*%
%ADD10C,3.500000*%
%TD*%
%TA.AperFunction,ComponentPad*%
%ADD11R,1.700000X1.700000*%
%TD*%
%TA.AperFunction,ComponentPad*%
%ADD12O,1.700000X1.700000*%
%TD*%
%TA.AperFunction,ComponentPad*%
%ADD13R,1.500000X1.500000*%
%TD*%
%TA.AperFunction,ComponentPad*%
%ADD14C,1.500000*%
%TD*%
%TA.AperFunction,ViaPad*%
%ADD15C,0.800000*%
%TD*%
%TA.AperFunction,Conductor*%
%ADD16C,0.500000*%
%TD*%
%TA.AperFunction,Conductor*%
%ADD17C,0.254000*%
%TD*%
G04 APERTURE END LIST*
%TO.P,J1,*%
%TO.N,*%
%TA.AperFunction,ComponentPad*%
G36*
G01*
X165375000Y-119500000D02*
X164825000Y-119500000D01*
G75*
G02*
X164325000Y-119000000I0J500000D01*
G01*
X164325000Y-119000000D01*
G75*
G02*
X164825000Y-118500000I500000J0D01*
G01*
X165375000Y-118500000D01*
G75*
G02*
X165875000Y-119000000I0J-500000D01*
G01*
X165875000Y-119000000D01*
G75*
G02*
X165375000Y-119500000I-500000J0D01*
G01*
G37*
%TD.AperFunction*%
%TA.AperFunction,ComponentPad*%
G36*
G01*
X165375000Y-112500000D02*
X164825000Y-112500000D01*
G75*
G02*
X164325000Y-112000000I0J500000D01*
G01*
X164325000Y-112000000D01*
G75*
G02*
X164825000Y-111500000I500000J0D01*
G01*
X165375000Y-111500000D01*
G75*
G02*
X165875000Y-112000000I0J-500000D01*
G01*
X165875000Y-112000000D01*
G75*
G02*
X165375000Y-112500000I-500000J0D01*
G01*
G37*
%TD.AperFunction*%
%TO.P,J1,6*%
%TO.N,Net-(J1-Pad6)*%
%TA.AperFunction,ComponentPad*%
G36*
G01*
X162400000Y-118625000D02*
X162400000Y-118625000D01*
G75*
G02*
X161925000Y-118150000I0J475000D01*
G01*
X161925000Y-117850000D01*
G75*
G02*
X162400000Y-117375000I475000J0D01*
G01*
X162400000Y-117375000D01*
G75*
G02*
X162875000Y-117850000I0J-475000D01*
G01*
X162875000Y-118150000D01*
G75*
G02*
X162400000Y-118625000I-475000J0D01*
G01*
G37*
%TD.AperFunction*%
%TO.P,J1,*%
%TO.N,*%
%TA.AperFunction,ComponentPad*%
G36*
G01*
X162400000Y-113625000D02*
X162400000Y-113625000D01*
G75*
G02*
X161925000Y-113150000I0J475000D01*
G01*
X161925000Y-112850000D01*
G75*
G02*
X162400000Y-112375000I475000J0D01*
G01*
X162400000Y-112375000D01*
G75*
G02*
X162875000Y-112850000I0J-475000D01*
G01*
X162875000Y-113150000D01*
G75*
G02*
X162400000Y-113625000I-475000J0D01*
G01*
G37*
%TD.AperFunction*%
%TD*%
D10*
%TO.P,BT1,2*%
%TO.N,GND*%
X152960000Y-142500000D03*
X158040000Y-142500000D03*
%TO.P,BT1,1*%
%TO.N,VBAT*%
X152960000Y-94500000D03*
X158040000Y-94500000D03*
%TO.P,BT1,2*%
%TO.N,GND*%
X155500000Y-150120000D03*
%TO.P,BT1,1*%
%TO.N,VBAT*%
X155500000Y-86880000D03*
%TD*%
D11*
%TO.P,M1,1*%
%TO.N,+12V*%
X146000000Y-77500000D03*
D12*
%TO.P,M1,2*%
%TO.N,GND*%
X148540000Y-77500000D03*
%TD*%
D13*
%TO.P,SW1,1*%
%TO.N,Net-(SW1-Pad1)*%
X163900000Y-138000000D03*
D14*
%TO.P,SW1,2*%
%TO.N,VBAT*%
X163900000Y-136000000D03*
%TO.P,SW1,3*%
%TO.N,VBATSW*%
X163900000Y-134000000D03*
%TD*%
D15*
%TO.N,VBAT*%
X148200000Y-97200000D03*
X149400000Y-97200000D03*
X150600000Y-97200000D03*
X151800000Y-97200000D03*
X148200000Y-98400000D03*
X149400000Y-98400000D03*
X150600000Y-98400000D03*
X151800000Y-98400000D03*
X149400000Y-99600000D03*
X150600000Y-99600000D03*
X151800000Y-99600000D03*
X149400000Y-100800000D03*
X150600000Y-100800000D03*
X151800000Y-100800000D03*
X148200000Y-102000000D03*
X149400000Y-102000000D03*
X150600000Y-102000000D03*
X151800000Y-102000000D03*
X148200000Y-103200000D03*
X149400000Y-103200000D03*
X150600000Y-103200000D03*
X151800000Y-103200000D03*
X148200000Y-100800000D03*
%TO.N,GND*%
X154800000Y-112200000D03*
X156000000Y-112200000D03*
X157200000Y-112200000D03*
X158400000Y-112200000D03*
X154800000Y-111000000D03*
X156000000Y-111000000D03*
X157200000Y-111000000D03*
X158400000Y-111000000D03*
X154800000Y-100200000D03*
X156000000Y-109800000D03*
X158400000Y-108600000D03*
X158400000Y-109800000D03*
X157200000Y-109800000D03*
X157200000Y-108600000D03*
X154800000Y-109800000D03*
X156000000Y-100200000D03*
X157200000Y-100200000D03*
X158400000Y-100200000D03*
X159600000Y-100200000D03*
X157200000Y-99200000D03*
X158400000Y-99200000D03*
X159600000Y-99200000D03*
X157200000Y-98200000D03*
X158400000Y-98200000D03*
X159600000Y-98200000D03*
X147400000Y-121600000D03*
X147400000Y-120200000D03*
X149300000Y-120200000D03*
X153700000Y-119800000D03*
X154900000Y-119800000D03*
X156000000Y-119400000D03*
X158400000Y-119400000D03*
X155400000Y-118200000D03*
X156600000Y-118200000D03*
X157200000Y-119400000D03*
X158400000Y-120600000D03*
X157200000Y-120600000D03*
X158400000Y-121800000D03*
X157200000Y-121800000D03*
X164000000Y-98000000D03*
X160750000Y-113250000D03*
X160750000Y-112050000D03*
X160750000Y-110850000D03*
X160750000Y-109650000D03*
X160750000Y-108450000D03*
X161950000Y-108450000D03*
X163150000Y-108450000D03*
X164350000Y-108450000D03*
X165550000Y-108450000D03*
X161950000Y-109650000D03*
X163150000Y-109650000D03*
X164350000Y-109650000D03*
X165550000Y-109650000D03*
%TO.N,Net-(C1-Pad1)*%
X148300000Y-104700000D03*
X149500000Y-104700000D03*
X150700000Y-104700000D03*
X151900000Y-104700000D03*
X148300000Y-105900000D03*
X149500000Y-105900000D03*
X150700000Y-105900000D03*
X151900000Y-105900000D03*
X148300000Y-107100000D03*
X149500000Y-107100000D03*
X150700000Y-107100000D03*
X151900000Y-107100000D03*
X148300000Y-108300000D03*
X149500000Y-108300000D03*
X150700000Y-108300000D03*
X151900000Y-108300000D03*
X148300000Y-109500000D03*
X149500000Y-109500000D03*
X150700000Y-109500000D03*
X153100000Y-109500000D03*
X148300000Y-110700000D03*
X149500000Y-110700000D03*
X150700000Y-110700000D03*
X151900000Y-110700000D03*
X148300000Y-111900000D03*
X149500000Y-111900000D03*
X150700000Y-111900000D03*
X151900000Y-111900000D03*
X148300000Y-113100000D03*
X149500000Y-113100000D03*
X150700000Y-113100000D03*
X151900000Y-113100000D03*
X148300000Y-114300000D03*
X149500000Y-114300000D03*
X150700000Y-114300000D03*
X151900000Y-114300000D03*
X151900000Y-109500000D03*
X153100000Y-110700000D03*
X153100000Y-111900000D03*
X153100000Y-113100000D03*
X153100000Y-114300000D03*
%TO.N,+12V*%
X146000000Y-116800000D03*
X145000000Y-81000000D03*
%TD*%
D16*
%TO.N,+12V*%
X146000000Y-116800000D02*
X142900000Y-113700000D01*
X142900000Y-113700000D02*
X142900000Y-80600000D01*
X144000000Y-80000000D02*
X144000000Y-79500000D01*
X145000000Y-81000000D02*
X144000000Y-80000000D01*
X144000000Y-79500000D02*
X146000000Y-77500000D01*
X142900000Y-80600000D02*
X144000000Y-79500000D01*
%TD*%
D17*
%TO.N,Net-(C1-Pad1)*%
G36*
X153573000Y-115173000D02*
G01*
X147627000Y-115173000D01*
X147627000Y-104127000D01*
X153573000Y-104127000D01*
X153573000Y-115173000D01*
G37*
X153573000Y-115173000D02*
X147627000Y-115173000D01*
X147627000Y-104127000D01*
X153573000Y-104127000D01*
X153573000Y-115173000D01*
%TO.N,VBAT*%
G36*
X153673000Y-103573000D02*
G01*
X147627000Y-103573000D01*
X147627000Y-96627000D01*
X153673000Y-96627000D01*
X153673000Y-103573000D01*
G37*
X153673000Y-103573000D02*
X147627000Y-103573000D01*
X147627000Y-96627000D01*
X153673000Y-96627000D01*
X153673000Y-103573000D01*
%TO.N,GND*%
G36*
X166348001Y-155348000D02*
G01*
X141627000Y-155348000D01*
X141627000Y-143012407D01*
X141651275Y-142764832D01*
X141651275Y-142764822D01*
X141652000Y-142757462D01*
X141652000Y-137250000D01*
X162771176Y-137250000D01*
X162771176Y-138750000D01*
X162778455Y-138823905D01*
X162800012Y-138894970D01*
X162835019Y-138960463D01*
X162882131Y-139017869D01*
X162939537Y-139064981D01*
X163005030Y-139099988D01*
X163076095Y-139121545D01*
X163150000Y-139128824D01*
X163324921Y-139128824D01*
X163181579Y-139224602D01*
X163024602Y-139381579D01*
X162901266Y-139566165D01*
X162816310Y-139771266D01*
X162773000Y-139989000D01*
X162773000Y-140211000D01*
X162816310Y-140428734D01*
X162901266Y-140633835D01*
X163024602Y-140818421D01*
X163181579Y-140975398D01*
X163366165Y-141098734D01*
X163571266Y-141183690D01*
X163789000Y-141227000D01*
X164011000Y-141227000D01*
X164228734Y-141183690D01*
X164433835Y-141098734D01*
X164618421Y-140975398D01*
X164775398Y-140818421D01*
X164898734Y-140633835D01*
X164983690Y-140428734D01*
X165027000Y-140211000D01*
X165027000Y-139989000D01*
X164983690Y-139771266D01*
X164898734Y-139566165D01*
X164775398Y-139381579D01*
X164618421Y-139224602D01*
X164475079Y-139128824D01*
X164650000Y-139128824D01*
X164723905Y-139121545D01*
X164794970Y-139099988D01*
X164860463Y-139064981D01*
X164917869Y-139017869D01*
X164964981Y-138960463D01*
X164999988Y-138894970D01*
X165021545Y-138823905D01*
X165028824Y-138750000D01*
X165028824Y-137250000D01*
X165021545Y-137176095D01*
X164999988Y-137105030D01*
X164964981Y-137039537D01*
X164917869Y-136982131D01*
X164860463Y-136935019D01*
X164794970Y-136900012D01*
X164723905Y-136878455D01*
X164650000Y-136871176D01*
X164622643Y-136871176D01*
X164775398Y-136718421D01*
X164898734Y-136533835D01*
X164983690Y-136328734D01*
X165027000Y-136111000D01*
X165027000Y-135889000D01*
X164983690Y-135671266D01*
X164898734Y-135466165D01*
X164775398Y-135281579D01*
X164618421Y-135124602D01*
X164433835Y-135001266D01*
X164430779Y-135000000D01*
X164433835Y-134998734D01*
X164618421Y-134875398D01*
X164775398Y-134718421D01*
X164898734Y-134533835D01*
X164983690Y-134328734D01*
X165027000Y-134111000D01*
X165027000Y-133889000D01*
X164983690Y-133671266D01*
X164898734Y-133466165D01*
X164775398Y-133281579D01*
X164618421Y-133124602D01*
X164433835Y-133001266D01*
X164310068Y-132950000D01*
X164433835Y-132898734D01*
X164618421Y-132775398D01*
X164775398Y-132618421D01*
X164898734Y-132433835D01*
X164983690Y-132228734D01*
X165027000Y-132011000D01*
X165027000Y-131789000D01*
X164983690Y-131571266D01*
X164898734Y-131366165D01*
X164775398Y-131181579D01*
X164618421Y-131024602D01*
X164433835Y-130901266D01*
X164228734Y-130816310D01*
X164011000Y-130773000D01*
X163789000Y-130773000D01*
X163571266Y-130816310D01*
X163366165Y-130901266D01*
X163181579Y-131024602D01*
X163024602Y-131181579D01*
X162901266Y-131366165D01*
X162816310Y-131571266D01*
X162773000Y-131789000D01*
X162773000Y-132011000D01*
X162816310Y-132228734D01*
X162901266Y-132433835D01*
X163024602Y-132618421D01*
X163181579Y-132775398D01*
X163366165Y-132898734D01*
X163489932Y-132950000D01*
X163366165Y-133001266D01*
X163181579Y-133124602D01*
X163024602Y-133281579D01*
X162901266Y-133466165D01*
X162816310Y-133671266D01*
X162773000Y-133889000D01*
X162773000Y-134111000D01*
X162816310Y-134328734D01*
X162901266Y-134533835D01*
X163024602Y-134718421D01*
X163181579Y-134875398D01*
X163366165Y-134998734D01*
X163369221Y-135000000D01*
X163366165Y-135001266D01*
X163181579Y-135124602D01*
X163024602Y-135281579D01*
X162901266Y-135466165D01*
X162816310Y-135671266D01*
X162773000Y-135889000D01*
X162773000Y-136111000D01*
X162816310Y-136328734D01*
X162901266Y-136533835D01*
X163024602Y-136718421D01*
X163177357Y-136871176D01*
X163150000Y-136871176D01*
X163076095Y-136878455D01*
X163005030Y-136900012D01*
X162939537Y-136935019D01*
X162882131Y-136982131D01*
X162835019Y-137039537D01*
X162800012Y-137105030D01*
X162778455Y-137176095D01*
X162771176Y-137250000D01*
X141652000Y-137250000D01*
X141652000Y-117850000D01*
X161546175Y-117850000D01*
X161546175Y-118150000D01*
X161562581Y-118316573D01*
X161611168Y-118476744D01*
X161690070Y-118624359D01*
X161796254Y-118753745D01*
X161925640Y-118859929D01*
X162073255Y-118938831D01*
X162233426Y-118987418D01*
X162399999Y-119003824D01*
X162400001Y-119003824D01*
X162438836Y-118999999D01*
X163946176Y-118999999D01*
X163946176Y-119000001D01*
X163963062Y-119171451D01*
X164013072Y-119336312D01*
X164094285Y-119488249D01*
X164203578Y-119621423D01*
X164336752Y-119730716D01*
X164488689Y-119811929D01*
X164653550Y-119861939D01*
X164825000Y-119878825D01*
X165375000Y-119878825D01*
X165546450Y-119861939D01*
X165711311Y-119811929D01*
X165863248Y-119730716D01*
X165996422Y-119621423D01*
X166105715Y-119488249D01*
X166186928Y-119336312D01*
X166236938Y-119171451D01*
X166253824Y-119000001D01*
X166253824Y-118999999D01*
X166236938Y-118828549D01*
X166186928Y-118663688D01*
X166105715Y-118511751D01*
X165996422Y-118378577D01*
X165863248Y-118269284D01*
X165711311Y-118188071D01*
X165546450Y-118138061D01*
X165375000Y-118121175D01*
X164825000Y-118121175D01*
X164653550Y-118138061D01*
X164488689Y-118188071D01*
X164336752Y-118269284D01*
X164203578Y-118378577D01*
X164094285Y-118511751D01*
X164013072Y-118663688D01*
X163963062Y-118828549D01*
X163946176Y-118999999D01*
X162438836Y-118999999D01*
X162566574Y-118987418D01*
X162726745Y-118938831D01*
X162874360Y-118859929D01*
X163003746Y-118753745D01*
X163109930Y-118624359D01*
X163188832Y-118476744D01*
X163237419Y-118316573D01*
X163253825Y-118150000D01*
X163253825Y-117850000D01*
X163237419Y-117683427D01*
X163188832Y-117523256D01*
X163109930Y-117375641D01*
X163003746Y-117246255D01*
X162874360Y-117140071D01*
X162726745Y-117061169D01*
X162566574Y-117012582D01*
X162400001Y-116996176D01*
X162399999Y-116996176D01*
X162233426Y-117012582D01*
X162073255Y-117061169D01*
X161925640Y-117140071D01*
X161796254Y-117246255D01*
X161690070Y-117375641D01*
X161611168Y-117523256D01*
X161562581Y-117683427D01*
X161546175Y-117850000D01*
X141652000Y-117850000D01*
X141652000Y-88242538D01*
X141651974Y-88242272D01*
X141651895Y-88219797D01*
X141651224Y-88213189D01*
X141651270Y-88206554D01*
X141651063Y-88204442D01*
X141627000Y-87975496D01*
X141627000Y-80600000D01*
X142269967Y-80600000D01*
X142273001Y-80630804D01*
X142273000Y-113669206D01*
X142269967Y-113700000D01*
X142273000Y-113730793D01*
X142282073Y-113822912D01*
X142317925Y-113941102D01*
X142376147Y-114050027D01*
X142454499Y-114145501D01*
X142478427Y-114165138D01*
X145231239Y-116917951D01*
X145252859Y-117026643D01*
X145311431Y-117168048D01*
X145396464Y-117295309D01*
X145504691Y-117403536D01*
X145631952Y-117488569D01*
X145773357Y-117547141D01*
X145923472Y-117577000D01*
X146076528Y-117577000D01*
X146226643Y-117547141D01*
X146368048Y-117488569D01*
X146495309Y-117403536D01*
X146603536Y-117295309D01*
X146688569Y-117168048D01*
X146747141Y-117026643D01*
X146777000Y-116876528D01*
X146777000Y-116723472D01*
X146747141Y-116573357D01*
X146688569Y-116431952D01*
X146603536Y-116304691D01*
X146495309Y-116196464D01*
X146368048Y-116111431D01*
X146226643Y-116052859D01*
X146117951Y-116031239D01*
X143527000Y-113440289D01*
X143527000Y-96200000D01*
X147073000Y-96200000D01*
X147073000Y-115600000D01*
X147075440Y-115624776D01*
X147082667Y-115648601D01*
X147094403Y-115670557D01*
X147110197Y-115689803D01*
X147129443Y-115705597D01*
X147151399Y-115717333D01*
X147175224Y-115724560D01*
X147200000Y-115727000D01*
X154100000Y-115727000D01*
X154124776Y-115724560D01*
X154148601Y-115717333D01*
X154170557Y-115705597D01*
X154189803Y-115689803D01*
X154205597Y-115670557D01*
X154217333Y-115648601D01*
X154224560Y-115624776D01*
X154227000Y-115600000D01*
X154227000Y-112850000D01*
X161546175Y-112850000D01*
X161546175Y-113150000D01*
X161562581Y-113316573D01*
X161611168Y-113476744D01*
X161690070Y-113624359D01*
X161796254Y-113753745D01*
X161925640Y-113859929D01*
X162073255Y-113938831D01*
X162233426Y-113987418D01*
X162399999Y-114003824D01*
X162400001Y-114003824D01*
X162566574Y-113987418D01*
X162726745Y-113938831D01*
X162874360Y-113859929D01*
X163003746Y-113753745D01*
X163109930Y-113624359D01*
X163188832Y-113476744D01*
X163237419Y-113316573D01*
X163253825Y-113150000D01*
X163253825Y-112850000D01*
X163237419Y-112683427D01*
X163188832Y-112523256D01*
X163109930Y-112375641D01*
X163003746Y-112246255D01*
X162874360Y-112140071D01*
X162726745Y-112061169D01*
X162566574Y-112012582D01*
X162438817Y-111999999D01*
X163946176Y-111999999D01*
X163946176Y-112000001D01*
X163963062Y-112171451D01*
X164013072Y-112336312D01*
X164094285Y-112488249D01*
X164203578Y-112621423D01*
X164336752Y-112730716D01*
X164488689Y-112811929D01*
X164653550Y-112861939D01*
X164825000Y-112878825D01*
X165375000Y-112878825D01*
X165546450Y-112861939D01*
X165711311Y-112811929D01*
X165863248Y-112730716D01*
X165996422Y-112621423D01*
X166105715Y-112488249D01*
X166186928Y-112336312D01*
X166236938Y-112171451D01*
X166253824Y-112000001D01*
X166253824Y-111999999D01*
X166236938Y-111828549D01*
X166186928Y-111663688D01*
X166105715Y-111511751D01*
X165996422Y-111378577D01*
X165863248Y-111269284D01*
X165711311Y-111188071D01*
X165546450Y-111138061D01*
X165375000Y-111121175D01*
X164825000Y-111121175D01*
X164653550Y-111138061D01*
X164488689Y-111188071D01*
X164336752Y-111269284D01*
X164203578Y-111378577D01*
X164094285Y-111511751D01*
X164013072Y-111663688D01*
X163963062Y-111828549D01*
X163946176Y-111999999D01*
X162438817Y-111999999D01*
X162400001Y-111996176D01*
X162399999Y-111996176D01*
X162233426Y-112012582D01*
X162073255Y-112061169D01*
X161925640Y-112140071D01*
X161796254Y-112246255D01*
X161690070Y-112375641D01*
X161611168Y-112523256D01*
X161562581Y-112683427D01*
X161546175Y-112850000D01*
X154227000Y-112850000D01*
X154227000Y-96211539D01*
X154315884Y-96152149D01*
X154612149Y-95855884D01*
X154844923Y-95507512D01*
X155005261Y-95120423D01*
X155087000Y-94709491D01*
X155087000Y-94290509D01*
X155913000Y-94290509D01*
X155913000Y-94709491D01*
X155994739Y-95120423D01*
X156155077Y-95507512D01*
X156387851Y-95855884D01*
X156684116Y-96152149D01*
X157032488Y-96384923D01*
X157419577Y-96545261D01*
X157830509Y-96627000D01*
X158249491Y-96627000D01*
X158660423Y-96545261D01*
X159047512Y-96384923D01*
X159395884Y-96152149D01*
X159692149Y-95855884D01*
X159924923Y-95507512D01*
X160085261Y-95120423D01*
X160167000Y-94709491D01*
X160167000Y-94290509D01*
X160085261Y-93879577D01*
X159924923Y-93492488D01*
X159692149Y-93144116D01*
X159395884Y-92847851D01*
X159047512Y-92615077D01*
X158660423Y-92454739D01*
X158249491Y-92373000D01*
X157830509Y-92373000D01*
X157419577Y-92454739D01*
X157032488Y-92615077D01*
X156684116Y-92847851D01*
X156387851Y-93144116D01*
X156155077Y-93492488D01*
X155994739Y-93879577D01*
X155913000Y-94290509D01*
X155087000Y-94290509D01*
X155005261Y-93879577D01*
X154844923Y-93492488D01*
X154612149Y-93144116D01*
X154315884Y-92847851D01*
X153967512Y-92615077D01*
X153580423Y-92454739D01*
X153169491Y-92373000D01*
X152750509Y-92373000D01*
X152339577Y-92454739D01*
X151952488Y-92615077D01*
X151604116Y-92847851D01*
X151307851Y-93144116D01*
X151075077Y-93492488D01*
X150914739Y-93879577D01*
X150833000Y-94290509D01*
X150833000Y-94709491D01*
X150914739Y-95120423D01*
X151075077Y-95507512D01*
X151307851Y-95855884D01*
X151524967Y-96073000D01*
X147200000Y-96073000D01*
X147175224Y-96075440D01*
X147151399Y-96082667D01*
X147129443Y-96094403D01*
X147110197Y-96110197D01*
X147094403Y-96129443D01*
X147082667Y-96151399D01*
X147075440Y-96175224D01*
X147073000Y-96200000D01*
X143527000Y-96200000D01*
X143527000Y-86670509D01*
X153373000Y-86670509D01*
X153373000Y-87089491D01*
X153454739Y-87500423D01*
X153615077Y-87887512D01*
X153847851Y-88235884D01*
X154144116Y-88532149D01*
X154492488Y-88764923D01*
X154879577Y-88925261D01*
X155290509Y-89007000D01*
X155709491Y-89007000D01*
X156120423Y-88925261D01*
X156507512Y-88764923D01*
X156855884Y-88532149D01*
X157152149Y-88235884D01*
X157384923Y-87887512D01*
X157545261Y-87500423D01*
X157627000Y-87089491D01*
X157627000Y-86670509D01*
X157545261Y-86259577D01*
X157384923Y-85872488D01*
X157152149Y-85524116D01*
X156855884Y-85227851D01*
X156507512Y-84995077D01*
X156120423Y-84834739D01*
X155709491Y-84753000D01*
X155290509Y-84753000D01*
X154879577Y-84834739D01*
X154492488Y-84995077D01*
X154144116Y-85227851D01*
X153847851Y-85524116D01*
X153615077Y-85872488D01*
X153454739Y-86259577D01*
X153373000Y-86670509D01*
X143527000Y-86670509D01*
X143527000Y-80859711D01*
X143750000Y-80636711D01*
X144231239Y-81117950D01*
X144252859Y-81226643D01*
X144311431Y-81368048D01*
X144396464Y-81495309D01*
X144504691Y-81603536D01*
X144631952Y-81688569D01*
X144773357Y-81747141D01*
X144923472Y-81777000D01*
X145076528Y-81777000D01*
X145226643Y-81747141D01*
X145368048Y-81688569D01*
X145495309Y-81603536D01*
X145603536Y-81495309D01*
X145688569Y-81368048D01*
X145747141Y-81226643D01*
X145777000Y-81076528D01*
X145777000Y-80923472D01*
X145747141Y-80773357D01*
X145688569Y-80631952D01*
X145603536Y-80504691D01*
X145495309Y-80396464D01*
X145368048Y-80311431D01*
X145226643Y-80252859D01*
X145117950Y-80231239D01*
X144636711Y-79750000D01*
X145657888Y-78728824D01*
X146850000Y-78728824D01*
X146923905Y-78721545D01*
X146994970Y-78699988D01*
X147060463Y-78664981D01*
X147117869Y-78617869D01*
X147164981Y-78560463D01*
X147199988Y-78494970D01*
X147221545Y-78423905D01*
X147228824Y-78350000D01*
X147228824Y-76650000D01*
X147221545Y-76576095D01*
X147199988Y-76505030D01*
X147164981Y-76439537D01*
X147117869Y-76382131D01*
X147060463Y-76335019D01*
X146994970Y-76300012D01*
X146923905Y-76278455D01*
X146850000Y-76271176D01*
X145150000Y-76271176D01*
X145076095Y-76278455D01*
X145005030Y-76300012D01*
X144939537Y-76335019D01*
X144882131Y-76382131D01*
X144835019Y-76439537D01*
X144800012Y-76505030D01*
X144778455Y-76576095D01*
X144771176Y-76650000D01*
X144771176Y-77842112D01*
X143578423Y-79034866D01*
X143578418Y-79034870D01*
X143554500Y-79054499D01*
X143534872Y-79078416D01*
X142478422Y-80134867D01*
X142454500Y-80154499D01*
X142376148Y-80249972D01*
X142322667Y-80350027D01*
X142317926Y-80358897D01*
X142282073Y-80477088D01*
X142269967Y-80600000D01*
X141627000Y-80600000D01*
X141627000Y-75652000D01*
X166348000Y-75652000D01*
X166348001Y-155348000D01*
G37*
X166348001Y-155348000D02*
X141627000Y-155348000D01*
X141627000Y-143012407D01*
X141651275Y-142764832D01*
X141651275Y-142764822D01*
X141652000Y-142757462D01*
X141652000Y-137250000D01*
X162771176Y-137250000D01*
X162771176Y-138750000D01*
X162778455Y-138823905D01*
X162800012Y-138894970D01*
X162835019Y-138960463D01*
X162882131Y-139017869D01*
X162939537Y-139064981D01*
X163005030Y-139099988D01*
X163076095Y-139121545D01*
X163150000Y-139128824D01*
X163324921Y-139128824D01*
X163181579Y-139224602D01*
X163024602Y-139381579D01*
X162901266Y-139566165D01*
X162816310Y-139771266D01*
X162773000Y-139989000D01*
X162773000Y-140211000D01*
X162816310Y-140428734D01*
X162901266Y-140633835D01*
X163024602Y-140818421D01*
X163181579Y-140975398D01*
X163366165Y-141098734D01*
X163571266Y-141183690D01*
X163789000Y-141227000D01*
X164011000Y-141227000D01*
X164228734Y-141183690D01*
X164433835Y-141098734D01*
X164618421Y-140975398D01*
X164775398Y-140818421D01*
X164898734Y-140633835D01*
X164983690Y-140428734D01*
X165027000Y-140211000D01*
X165027000Y-139989000D01*
X164983690Y-139771266D01*
X164898734Y-139566165D01*
X164775398Y-139381579D01*
X164618421Y-139224602D01*
X164475079Y-139128824D01*
X164650000Y-139128824D01*
X164723905Y-139121545D01*
X164794970Y-139099988D01*
X164860463Y-139064981D01*
X164917869Y-139017869D01*
X164964981Y-138960463D01*
X164999988Y-138894970D01*
X165021545Y-138823905D01*
X165028824Y-138750000D01*
X165028824Y-137250000D01*
X165021545Y-137176095D01*
X164999988Y-137105030D01*
X164964981Y-137039537D01*
X164917869Y-136982131D01*
X164860463Y-136935019D01*
X164794970Y-136900012D01*
X164723905Y-136878455D01*
X164650000Y-136871176D01*
X164622643Y-136871176D01*
X164775398Y-136718421D01*
X164898734Y-136533835D01*
X164983690Y-136328734D01*
X165027000Y-136111000D01*
X165027000Y-135889000D01*
X164983690Y-135671266D01*
X164898734Y-135466165D01*
X164775398Y-135281579D01*
X164618421Y-135124602D01*
X164433835Y-135001266D01*
X164430779Y-135000000D01*
X164433835Y-134998734D01*
X164618421Y-134875398D01*
X164775398Y-134718421D01*
X164898734Y-134533835D01*
X164983690Y-134328734D01*
X165027000Y-134111000D01*
X165027000Y-133889000D01*
X164983690Y-133671266D01*
X164898734Y-133466165D01*
X164775398Y-133281579D01*
X164618421Y-133124602D01*
X164433835Y-133001266D01*
X164310068Y-132950000D01*
X164433835Y-132898734D01*
X164618421Y-132775398D01*
X164775398Y-132618421D01*
X164898734Y-132433835D01*
X164983690Y-132228734D01*
X165027000Y-132011000D01*
X165027000Y-131789000D01*
X164983690Y-131571266D01*
X164898734Y-131366165D01*
X164775398Y-131181579D01*
X164618421Y-131024602D01*
X164433835Y-130901266D01*
X164228734Y-130816310D01*
X164011000Y-130773000D01*
X163789000Y-130773000D01*
X163571266Y-130816310D01*
X163366165Y-130901266D01*
X163181579Y-131024602D01*
X163024602Y-131181579D01*
X162901266Y-131366165D01*
X162816310Y-131571266D01*
X162773000Y-131789000D01*
X162773000Y-132011000D01*
X162816310Y-132228734D01*
X162901266Y-132433835D01*
X163024602Y-132618421D01*
X163181579Y-132775398D01*
X163366165Y-132898734D01*
X163489932Y-132950000D01*
X163366165Y-133001266D01*
X163181579Y-133124602D01*
X163024602Y-133281579D01*
X162901266Y-133466165D01*
X162816310Y-133671266D01*
X162773000Y-133889000D01*
X162773000Y-134111000D01*
X162816310Y-134328734D01*
X162901266Y-134533835D01*
X163024602Y-134718421D01*
X163181579Y-134875398D01*
X163366165Y-134998734D01*
X163369221Y-135000000D01*
X163366165Y-135001266D01*
X163181579Y-135124602D01*
X163024602Y-135281579D01*
X162901266Y-135466165D01*
X162816310Y-135671266D01*
X162773000Y-135889000D01*
X162773000Y-136111000D01*
X162816310Y-136328734D01*
X162901266Y-136533835D01*
X163024602Y-136718421D01*
X163177357Y-136871176D01*
X163150000Y-136871176D01*
X163076095Y-136878455D01*
X163005030Y-136900012D01*
X162939537Y-136935019D01*
X162882131Y-136982131D01*
X162835019Y-137039537D01*
X162800012Y-137105030D01*
X162778455Y-137176095D01*
X162771176Y-137250000D01*
X141652000Y-137250000D01*
X141652000Y-117850000D01*
X161546175Y-117850000D01*
X161546175Y-118150000D01*
X161562581Y-118316573D01*
X161611168Y-118476744D01*
X161690070Y-118624359D01*
X161796254Y-118753745D01*
X161925640Y-118859929D01*
X162073255Y-118938831D01*
X162233426Y-118987418D01*
X162399999Y-119003824D01*
X162400001Y-119003824D01*
X162438836Y-118999999D01*
X163946176Y-118999999D01*
X163946176Y-119000001D01*
X163963062Y-119171451D01*
X164013072Y-119336312D01*
X164094285Y-119488249D01*
X164203578Y-119621423D01*
X164336752Y-119730716D01*
X164488689Y-119811929D01*
X164653550Y-119861939D01*
X164825000Y-119878825D01*
X165375000Y-119878825D01*
X165546450Y-119861939D01*
X165711311Y-119811929D01*
X165863248Y-119730716D01*
X165996422Y-119621423D01*
X166105715Y-119488249D01*
X166186928Y-119336312D01*
X166236938Y-119171451D01*
X166253824Y-119000001D01*
X166253824Y-118999999D01*
X166236938Y-118828549D01*
X166186928Y-118663688D01*
X166105715Y-118511751D01*
X165996422Y-118378577D01*
X165863248Y-118269284D01*
X165711311Y-118188071D01*
X165546450Y-118138061D01*
X165375000Y-118121175D01*
X164825000Y-118121175D01*
X164653550Y-118138061D01*
X164488689Y-118188071D01*
X164336752Y-118269284D01*
X164203578Y-118378577D01*
X164094285Y-118511751D01*
X164013072Y-118663688D01*
X163963062Y-118828549D01*
X163946176Y-118999999D01*
X162438836Y-118999999D01*
X162566574Y-118987418D01*
X162726745Y-118938831D01*
X162874360Y-118859929D01*
X163003746Y-118753745D01*
X163109930Y-118624359D01*
X163188832Y-118476744D01*
X163237419Y-118316573D01*
X163253825Y-118150000D01*
X163253825Y-117850000D01*
X163237419Y-117683427D01*
X163188832Y-117523256D01*
X163109930Y-117375641D01*
X163003746Y-117246255D01*
X162874360Y-117140071D01*
X162726745Y-117061169D01*
X162566574Y-117012582D01*
X162400001Y-116996176D01*
X162399999Y-116996176D01*
X162233426Y-117012582D01*
X162073255Y-117061169D01*
X161925640Y-117140071D01*
X161796254Y-117246255D01*
X161690070Y-117375641D01*
X161611168Y-117523256D01*
X161562581Y-117683427D01*
X161546175Y-117850000D01*
X141652000Y-117850000D01*
X141652000Y-88242538D01*
X141651974Y-88242272D01*
X141651895Y-88219797D01*
X141651224Y-88213189D01*
X141651270Y-88206554D01*
X141651063Y-88204442D01*
X141627000Y-87975496D01*
X141627000Y-80600000D01*
X142269967Y-80600000D01*
X142273001Y-80630804D01*
X142273000Y-113669206D01*
X142269967Y-113700000D01*
X142273000Y-113730793D01*
X142282073Y-113822912D01*
X142317925Y-113941102D01*
X142376147Y-114050027D01*
X142454499Y-114145501D01*
X142478427Y-114165138D01*
X145231239Y-116917951D01*
X145252859Y-117026643D01*
X145311431Y-117168048D01*
X145396464Y-117295309D01*
X145504691Y-117403536D01*
X145631952Y-117488569D01*
X145773357Y-117547141D01*
X145923472Y-117577000D01*
X146076528Y-117577000D01*
X146226643Y-117547141D01*
X146368048Y-117488569D01*
X146495309Y-117403536D01*
X146603536Y-117295309D01*
X146688569Y-117168048D01*
X146747141Y-117026643D01*
X146777000Y-116876528D01*
X146777000Y-116723472D01*
X146747141Y-116573357D01*
X146688569Y-116431952D01*
X146603536Y-116304691D01*
X146495309Y-116196464D01*
X146368048Y-116111431D01*
X146226643Y-116052859D01*
X146117951Y-116031239D01*
X143527000Y-113440289D01*
X143527000Y-96200000D01*
X147073000Y-96200000D01*
X147073000Y-115600000D01*
X147075440Y-115624776D01*
X147082667Y-115648601D01*
X147094403Y-115670557D01*
X147110197Y-115689803D01*
X147129443Y-115705597D01*
X147151399Y-115717333D01*
X147175224Y-115724560D01*
X147200000Y-115727000D01*
X154100000Y-115727000D01*
X154124776Y-115724560D01*
X154148601Y-115717333D01*
X154170557Y-115705597D01*
X154189803Y-115689803D01*
X154205597Y-115670557D01*
X154217333Y-115648601D01*
X154224560Y-115624776D01*
X154227000Y-115600000D01*
X154227000Y-112850000D01*
X161546175Y-112850000D01*
X161546175Y-113150000D01*
X161562581Y-113316573D01*
X161611168Y-113476744D01*
X161690070Y-113624359D01*
X161796254Y-113753745D01*
X161925640Y-113859929D01*
X162073255Y-113938831D01*
X162233426Y-113987418D01*
X162399999Y-114003824D01*
X162400001Y-114003824D01*
X162566574Y-113987418D01*
X162726745Y-113938831D01*
X162874360Y-113859929D01*
X163003746Y-113753745D01*
X163109930Y-113624359D01*
X163188832Y-113476744D01*
X163237419Y-113316573D01*
X163253825Y-113150000D01*
X163253825Y-112850000D01*
X163237419Y-112683427D01*
X163188832Y-112523256D01*
X163109930Y-112375641D01*
X163003746Y-112246255D01*
X162874360Y-112140071D01*
X162726745Y-112061169D01*
X162566574Y-112012582D01*
X162438817Y-111999999D01*
X163946176Y-111999999D01*
X163946176Y-112000001D01*
X163963062Y-112171451D01*
X164013072Y-112336312D01*
X164094285Y-112488249D01*
X164203578Y-112621423D01*
X164336752Y-112730716D01*
X164488689Y-112811929D01*
X164653550Y-112861939D01*
X164825000Y-112878825D01*
X165375000Y-112878825D01*
X165546450Y-112861939D01*
X165711311Y-112811929D01*
X165863248Y-112730716D01*
X165996422Y-112621423D01*
X166105715Y-112488249D01*
X166186928Y-112336312D01*
X166236938Y-112171451D01*
X166253824Y-112000001D01*
X166253824Y-111999999D01*
X166236938Y-111828549D01*
X166186928Y-111663688D01*
X166105715Y-111511751D01*
X165996422Y-111378577D01*
X165863248Y-111269284D01*
X165711311Y-111188071D01*
X165546450Y-111138061D01*
X165375000Y-111121175D01*
X164825000Y-111121175D01*
X164653550Y-111138061D01*
X164488689Y-111188071D01*
X164336752Y-111269284D01*
X164203578Y-111378577D01*
X164094285Y-111511751D01*
X164013072Y-111663688D01*
X163963062Y-111828549D01*
X163946176Y-111999999D01*
X162438817Y-111999999D01*
X162400001Y-111996176D01*
X162399999Y-111996176D01*
X162233426Y-112012582D01*
X162073255Y-112061169D01*
X161925640Y-112140071D01*
X161796254Y-112246255D01*
X161690070Y-112375641D01*
X161611168Y-112523256D01*
X161562581Y-112683427D01*
X161546175Y-112850000D01*
X154227000Y-112850000D01*
X154227000Y-96211539D01*
X154315884Y-96152149D01*
X154612149Y-95855884D01*
X154844923Y-95507512D01*
X155005261Y-95120423D01*
X155087000Y-94709491D01*
X155087000Y-94290509D01*
X155913000Y-94290509D01*
X155913000Y-94709491D01*
X155994739Y-95120423D01*
X156155077Y-95507512D01*
X156387851Y-95855884D01*
X156684116Y-96152149D01*
X157032488Y-96384923D01*
X157419577Y-96545261D01*
X157830509Y-96627000D01*
X158249491Y-96627000D01*
X158660423Y-96545261D01*
X159047512Y-96384923D01*
X159395884Y-96152149D01*
X159692149Y-95855884D01*
X159924923Y-95507512D01*
X160085261Y-95120423D01*
X160167000Y-94709491D01*
X160167000Y-94290509D01*
X160085261Y-93879577D01*
X159924923Y-93492488D01*
X159692149Y-93144116D01*
X159395884Y-92847851D01*
X159047512Y-92615077D01*
X158660423Y-92454739D01*
X158249491Y-92373000D01*
X157830509Y-92373000D01*
X157419577Y-92454739D01*
X157032488Y-92615077D01*
X156684116Y-92847851D01*
X156387851Y-93144116D01*
X156155077Y-93492488D01*
X155994739Y-93879577D01*
X155913000Y-94290509D01*
X155087000Y-94290509D01*
X155005261Y-93879577D01*
X154844923Y-93492488D01*
X154612149Y-93144116D01*
X154315884Y-92847851D01*
X153967512Y-92615077D01*
X153580423Y-92454739D01*
X153169491Y-92373000D01*
X152750509Y-92373000D01*
X152339577Y-92454739D01*
X151952488Y-92615077D01*
X151604116Y-92847851D01*
X151307851Y-93144116D01*
X151075077Y-93492488D01*
X150914739Y-93879577D01*
X150833000Y-94290509D01*
X150833000Y-94709491D01*
X150914739Y-95120423D01*
X151075077Y-95507512D01*
X151307851Y-95855884D01*
X151524967Y-96073000D01*
X147200000Y-96073000D01*
X147175224Y-96075440D01*
X147151399Y-96082667D01*
X147129443Y-96094403D01*
X147110197Y-96110197D01*
X147094403Y-96129443D01*
X147082667Y-96151399D01*
X147075440Y-96175224D01*
X147073000Y-96200000D01*
X143527000Y-96200000D01*
X143527000Y-86670509D01*
X153373000Y-86670509D01*
X153373000Y-87089491D01*
X153454739Y-87500423D01*
X153615077Y-87887512D01*
X153847851Y-88235884D01*
X154144116Y-88532149D01*
X154492488Y-88764923D01*
X154879577Y-88925261D01*
X155290509Y-89007000D01*
X155709491Y-89007000D01*
X156120423Y-88925261D01*
X156507512Y-88764923D01*
X156855884Y-88532149D01*
X157152149Y-88235884D01*
X157384923Y-87887512D01*
X157545261Y-87500423D01*
X157627000Y-87089491D01*
X157627000Y-86670509D01*
X157545261Y-86259577D01*
X157384923Y-85872488D01*
X157152149Y-85524116D01*
X156855884Y-85227851D01*
X156507512Y-84995077D01*
X156120423Y-84834739D01*
X155709491Y-84753000D01*
X155290509Y-84753000D01*
X154879577Y-84834739D01*
X154492488Y-84995077D01*
X154144116Y-85227851D01*
X153847851Y-85524116D01*
X153615077Y-85872488D01*
X153454739Y-86259577D01*
X153373000Y-86670509D01*
X143527000Y-86670509D01*
X143527000Y-80859711D01*
X143750000Y-80636711D01*
X144231239Y-81117950D01*
X144252859Y-81226643D01*
X144311431Y-81368048D01*
X144396464Y-81495309D01*
X144504691Y-81603536D01*
X144631952Y-81688569D01*
X144773357Y-81747141D01*
X144923472Y-81777000D01*
X145076528Y-81777000D01*
X145226643Y-81747141D01*
X145368048Y-81688569D01*
X145495309Y-81603536D01*
X145603536Y-81495309D01*
X145688569Y-81368048D01*
X145747141Y-81226643D01*
X145777000Y-81076528D01*
X145777000Y-80923472D01*
X145747141Y-80773357D01*
X145688569Y-80631952D01*
X145603536Y-80504691D01*
X145495309Y-80396464D01*
X145368048Y-80311431D01*
X145226643Y-80252859D01*
X145117950Y-80231239D01*
X144636711Y-79750000D01*
X145657888Y-78728824D01*
X146850000Y-78728824D01*
X146923905Y-78721545D01*
X146994970Y-78699988D01*
X147060463Y-78664981D01*
X147117869Y-78617869D01*
X147164981Y-78560463D01*
X147199988Y-78494970D01*
X147221545Y-78423905D01*
X147228824Y-78350000D01*
X147228824Y-76650000D01*
X147221545Y-76576095D01*
X147199988Y-76505030D01*
X147164981Y-76439537D01*
X147117869Y-76382131D01*
X147060463Y-76335019D01*
X146994970Y-76300012D01*
X146923905Y-76278455D01*
X146850000Y-76271176D01*
X145150000Y-76271176D01*
X145076095Y-76278455D01*
X145005030Y-76300012D01*
X144939537Y-76335019D01*
X144882131Y-76382131D01*
X144835019Y-76439537D01*
X144800012Y-76505030D01*
X144778455Y-76576095D01*
X144771176Y-76650000D01*
X144771176Y-77842112D01*
X143578423Y-79034866D01*
X143578418Y-79034870D01*
X143554500Y-79054499D01*
X143534872Y-79078416D01*
X142478422Y-80134867D01*
X142454500Y-80154499D01*
X142376148Y-80249972D01*
X142322667Y-80350027D01*
X142317926Y-80358897D01*
X142282073Y-80477088D01*
X142269967Y-80600000D01*
X141627000Y-80600000D01*
X141627000Y-75652000D01*
X166348000Y-75652000D01*
X166348001Y-155348000D01*
%TD*%
M02*
