%TF.GenerationSoftware,KiCad,Pcbnew,5.1.6*%
%TF.CreationDate,2020-05-18T18:09:20+02:00*%
%TF.ProjectId,solder-snorter,736f6c64-6572-42d7-936e-6f727465722e,rev?*%
%TF.SameCoordinates,Original*%
%TF.FileFunction,Legend,Bot*%
%TF.FilePolarity,Positive*%
%FSLAX46Y46*%
G04 Gerber Fmt 4.6, Leading zero omitted, Abs format (unit mm)*
G04 Created by KiCad (PCBNEW 5.1.6) date 2020-05-18 18:09:20*
%MOMM*%
%LPD*%
G01*
G04 APERTURE LIST*
%ADD10C,0.120000*%
%ADD11C,0.150000*%
G04 APERTURE END LIST*
D10*
%TO.C,BT1*%
X165940000Y-81500000D02*
X158940000Y-81500000D01*
X165940000Y-155500000D02*
X165940000Y-81500000D01*
X158940000Y-155500000D02*
X165940000Y-155500000D01*
X145060000Y-81500000D02*
X152060000Y-81500000D01*
X145060000Y-155500000D02*
X145060000Y-81500000D01*
X152060000Y-155500000D02*
X145080000Y-155500000D01*
X147468000Y-154274000D02*
X147468000Y-151774000D01*
X147468000Y-82338000D02*
X147468000Y-84838000D01*
X148718000Y-83588000D02*
X146218000Y-83588000D01*
D11*
X143628571Y-117714285D02*
X143676190Y-117857142D01*
X143723809Y-117904761D01*
X143819047Y-117952380D01*
X143961904Y-117952380D01*
X144057142Y-117904761D01*
X144104761Y-117857142D01*
X144152380Y-117761904D01*
X144152380Y-117380952D01*
X143152380Y-117380952D01*
X143152380Y-117714285D01*
X143200000Y-117809523D01*
X143247619Y-117857142D01*
X143342857Y-117904761D01*
X143438095Y-117904761D01*
X143533333Y-117857142D01*
X143580952Y-117809523D01*
X143628571Y-117714285D01*
X143628571Y-117380952D01*
X143152380Y-118238095D02*
X143152380Y-118809523D01*
X144152380Y-118523809D02*
X143152380Y-118523809D01*
X144152380Y-119666666D02*
X144152380Y-119095238D01*
X144152380Y-119380952D02*
X143152380Y-119380952D01*
X143295238Y-119285714D01*
X143390476Y-119190476D01*
X143438095Y-119095238D01*
%TD*%
M02*
